<svg xmlns="http://www.w3.org/2000/svg" width="933.333" height="933.333" preserveAspectRatio="xMidYMid meet" version="1.0" viewBox="0 0 700 700"><metadata>Created by potrace 1.11, written by Peter Selinger 2001-2013</metadata><g fill="#000" stroke="none"><path d="M3295 6299 c-319 -55 -576 -184 -785 -392 -192 -192 -314 -405 -376 -662 -116 -482 33 -984 394 -1327 207 -196 454 -320 737 -368 645 -110 1290 245 1536 846 159 388 132 842 -72 1200 -214 376 -578 629 -1005 699 -97 16 -347 18 -429 4z" transform="translate(0.000000,700.000000) scale(0.100000,-0.100000)"/><path d="M3330 3460 c-477 -67 -868 -338 -1079 -749 -155 -302 -194 -650 -110 -981 89 -353 334 -670 664 -859 421 -241 969 -241 1390 0 330 189 575 506 664 859 31 120 42 216 42 350 0 155 -20 285 -65 424 -158 480 -552 831 -1052 936 -113 24 -351 34 -454 20z" transform="translate(0.000000,700.000000) scale(0.100000,-0.100000)"/></g></svg>