<svg width="17" height="19" viewBox="0 0 17 19" fill="none" xmlns="http://www.w3.org/2000/svg">
<path d="M13.6 5.1H3.4V13.7702C3.4 14.4981 3.4003 14.993 3.43154 15.3755C3.46199 15.7482 3.51737 15.939 3.58511 16.072C3.74808 16.3918 4.00821 16.6519 4.32803 16.8149C4.46097 16.8826 4.65181 16.938 5.02446 16.9685C5.40699 16.9997 5.9019 17 6.62983 17H10.3702C11.0981 17 11.593 16.9997 11.9755 16.9685C12.3482 16.938 12.539 16.8826 12.672 16.8149C12.9918 16.6519 13.2519 16.3918 13.4149 16.072C13.4826 15.939 13.538 15.7482 13.5685 15.3755C13.5997 14.993 13.6 14.4981 13.6 13.7702V5.1ZM7.82017 1.7C7.3301 1.7 7.01344 1.70108 6.77261 1.72076C6.54176 1.73962 6.45604 1.77156 6.41401 1.79297C6.25424 1.87444 6.12443 2.00424 6.04297 2.16402C6.02156 2.20604 5.98962 2.29176 5.97075 2.52261C5.95345 2.73439 5.95121 3.00467 5.95083 3.4H11.0492C11.0488 3.00467 11.0466 2.73439 11.0292 2.52261C11.0104 2.29176 10.9784 2.20604 10.957 2.16402C10.8756 2.00424 10.7458 1.87444 10.586 1.79297C10.544 1.77156 10.4582 1.73962 10.2274 1.72076C9.98656 1.70108 9.6699 1.7 9.17983 1.7H7.82017ZM15.3 13.7702C15.3 14.4701 15.3009 15.0463 15.2626 15.5142C15.2236 15.9919 15.14 16.4314 14.9298 16.8439C14.6038 17.4836 14.0836 18.0038 13.4439 18.3298C13.0314 18.54 12.5919 18.6236 12.1142 18.6626C11.6463 18.7009 11.0701 18.7 10.3702 18.7H6.62983C5.92987 18.7 5.35366 18.7009 4.88584 18.6626C4.40809 18.6236 3.96856 18.54 3.55605 18.3298C2.91642 18.0038 2.39616 17.4836 2.07021 16.8439C1.86003 16.4314 1.77639 15.9919 1.73735 15.5142C1.69913 15.0463 1.7 14.4701 1.7 13.7702V5.1H0.85C0.380558 5.1 0 4.71945 0 4.25C0 3.78056 0.380558 3.4 0.85 3.4H4.25083C4.25107 3.00982 4.25241 2.6694 4.27573 2.38399C4.3032 2.04802 4.36424 1.7136 4.52808 1.39204C4.77251 0.912455 5.16245 0.522518 5.64204 0.27808C5.96359 0.114241 6.29802 0.0532005 6.63398 0.0257362C6.9601 -0.000908958 7.35815 3.75204e-06 7.82017 3.75204e-06H9.17983C9.64185 3.75204e-06 10.0399 -0.000908908 10.366 0.0257362C10.702 0.0532005 11.0364 0.114241 11.358 0.27808C11.8375 0.522518 12.2275 0.912455 12.4719 1.39204C12.6358 1.7136 12.6968 2.04802 12.7243 2.38399C12.7476 2.6694 12.7489 3.00982 12.7492 3.4H16.15C16.6194 3.4 17 3.78056 17 4.25C17 4.71945 16.6194 5.1 16.15 5.1H15.3V13.7702Z" fill="currentColor"/>
</svg>
