<svg width="18" height="18" viewBox="0 0 18 18" fill="none" xmlns="http://www.w3.org/2000/svg">
<path d="M7.95554 15.1643C7.95555 15.7955 8.4544 16.3115 9.08767 16.3588L11.992 9.97159C12.0336 9.88007 12.0842 9.79431 12.1407 9.71351L12.1407 1.63636L4.25099 1.63636C3.42472 1.63636 2.72136 2.22596 2.59572 3.02424L1.69492 8.75151C1.53909 9.74264 2.32345 10.6364 3.34938 10.6364L6.28146 10.6364C7.20603 10.6364 7.95554 11.369 7.95554 12.2727L7.95554 15.1643ZM16.3259 2.45454C16.3259 2.00267 15.9512 1.63636 15.4889 1.63636L13.8148 1.63636L13.8148 9L15.4889 9C15.9512 9 16.3259 8.63369 16.3259 8.18182L16.3259 2.45454ZM6.28146 12.2727L3.34938 12.2727C1.29734 12.2727 -0.272383 10.4847 0.0396434 8.50222L0.941256 2.77495C1.19259 1.17846 2.59848 -5.60905e-07 4.25099 -7.05372e-07L15.4889 -1.68782e-06C16.8757 -1.80906e-06 18 1.09893 18 2.45454L18 8.18182C18 9.53743 16.8757 10.6364 15.4889 10.6364L13.5214 10.6364L10.5762 17.1147L10.5271 17.2138C10.2632 17.6954 9.74745 18 9.18249 18L9.0329 17.996C7.50024 17.9199 6.28147 16.6814 6.28146 15.1643L6.28146 12.2727Z" fill="currentColor"/>
</svg>
