<svg width="22" height="16" viewBox="0 0 22 16" fill="none" xmlns="http://www.w3.org/2000/svg">
<path d="M11 0C13.8616 0 16.1952 1.26435 17.9238 2.70703C19.65 4.14772 20.833 5.81435 21.4258 6.75293C21.5307 6.91914 21.6734 7.13119 21.7627 7.42285L21.7978 7.55273L21.833 7.76953C21.8563 7.99531 21.8446 8.24338 21.7978 8.44727C21.7152 8.80738 21.5457 9.05712 21.4258 9.24707C20.833 10.1857 19.65 11.8523 17.9238 13.293C16.1952 14.7356 13.8616 16 11 16C8.13862 15.9999 5.80564 14.7355 4.07715 13.293C2.3509 11.8522 1.16696 10.1856 0.574217 9.24707C0.454262 9.05715 0.285716 8.80721 0.203123 8.44727C0.140788 8.17531 0.140788 7.82469 0.203123 7.55273C0.285716 7.19279 0.454262 6.94285 0.574217 6.75293C1.16696 5.81437 2.3509 4.14778 4.07715 2.70703C5.80564 1.26446 8.13862 0.000118845 11 0ZM11 2C8.75684 2.00012 6.86225 2.98803 5.3584 4.24316C3.85247 5.50011 2.79832 6.97689 2.26562 7.82031C2.23028 7.87627 2.20523 7.91617 2.18457 7.9502C2.17097 7.9726 2.16224 7.98824 2.15625 7.99902V8C2.16224 8.01081 2.17065 8.02687 2.18457 8.0498C2.20523 8.08383 2.23028 8.12373 2.26562 8.17969C2.79832 9.02311 3.85247 10.4999 5.3584 11.7568C6.86225 13.012 8.75684 13.9999 11 14C13.2433 14 15.1386 13.012 16.6426 11.7568C18.1485 10.4999 19.2027 9.02308 19.7353 8.17969C19.7707 8.12376 19.7948 8.08381 19.8154 8.0498C19.8293 8.02695 19.8377 8.01085 19.8437 8C19.8377 7.98915 19.8293 7.97305 19.8154 7.9502C19.7948 7.91619 19.7707 7.87624 19.7353 7.82031C19.2027 6.97692 18.1485 5.50013 16.6426 4.24316C15.1386 2.98796 13.2433 2 11 2ZM13 8C13 6.89543 12.1046 6 11 6C9.89561 6.00022 9 6.89556 9 8C9 9.10443 9.89561 9.99978 11 10C12.1046 10 13 9.10457 13 8ZM2.15722 8.02441V8.02246L2.15625 8.02051C2.15636 8.02217 2.15714 8.02345 2.15722 8.02441ZM15 8C15 10.2091 13.2091 12 11 12C8.79104 11.9998 7 10.209 7 8C7 5.791 8.79104 4.00022 11 4C13.2091 4 15 5.79086 15 8Z" fill="currentColor"/>
</svg>
