<svg width="18" height="22" viewBox="0 0 18 22" fill="none" xmlns="http://www.w3.org/2000/svg">
<path d="M17 14C17.6738 14.6738 17.7051 14.706 17.7061 14.708L17.7051 14.709C17.7044 14.7097 17.7039 14.7112 17.7031 14.7119C17.7017 14.7133 17.6998 14.7143 17.6982 14.7158C17.695 14.719 17.6913 14.7229 17.6875 14.7266C17.6799 14.7338 17.671 14.742 17.6611 14.751C17.6412 14.7691 17.6161 14.7904 17.5869 14.8145C17.5282 14.8628 17.4504 14.9224 17.3516 14.9883C17.1536 15.1203 16.8731 15.2779 16.4961 15.4287C15.7402 15.731 14.6125 16 13 16C11.2809 16 9.86073 15.4214 8.62891 14.9287C7.36081 14.4215 6.28069 14 5 14C3.61272 14 2.74022 14.2311 2.24609 14.4287C2.15107 14.4667 2.06933 14.5037 2 14.5381V21C2 21.5523 1.55228 22 1 22C0.447716 22 0 21.5523 0 21V2C0 1.73478 0.105432 1.48051 0.292969 1.29297L1 2C0.32619 1.32619 0.294939 1.29399 0.293945 1.29199L0.294922 1.29102C0.295646 1.2903 0.296116 1.28884 0.296875 1.28809C0.298294 1.28668 0.300219 1.28568 0.301758 1.28418C0.305041 1.28097 0.308672 1.27709 0.3125 1.27344C0.320139 1.26615 0.329021 1.25798 0.338867 1.24902C0.358778 1.23092 0.383853 1.20963 0.413086 1.18555C0.471796 1.1372 0.54963 1.07759 0.648438 1.01172C0.846414 0.879735 1.12685 0.722111 1.50391 0.571289C2.25978 0.268993 3.38752 0 5 0C6.71915 0 8.13927 0.578557 9.37109 1.07129C10.6392 1.57853 11.7193 2 13 2C14.3873 2 15.2598 1.76894 15.7539 1.57129C16.0017 1.47216 16.159 1.37971 16.2422 1.32422L16.3154 1.27148C16.3135 1.27323 16.3104 1.27575 16.3066 1.2793L16.2949 1.29102C16.5809 1.00658 17.01 0.921743 17.3828 1.07617C17.7564 1.23098 18 1.59558 18 2V14C18 14.2652 17.8946 14.5195 17.707 14.707L17 14ZM5 2C3.61272 2 2.74022 2.23106 2.24609 2.42871C2.15107 2.46673 2.06933 2.50372 2 2.53809V12.3984C2.72765 12.1743 3.70797 12 5 12C6.71915 12 8.13927 12.5786 9.37109 13.0713C10.6392 13.5785 11.7193 14 13 14C14.3873 14 15.2598 13.7689 15.7539 13.5713C15.8491 13.5332 15.9306 13.4954 16 13.4609V3.60059C15.2723 3.82481 14.2922 4 13 4C11.2809 4 9.86073 3.42144 8.62891 2.92871C7.36081 2.42147 6.28069 2 5 2Z" fill="currentColor"/>
</svg>
