<svg width="18" height="18" viewBox="0 0 18 18" fill="none" xmlns="http://www.w3.org/2000/svg">
<path d="M10.0445 2.83567C10.0445 2.20454 9.5456 1.68853 8.91233 1.64116L6.00804 8.02841C5.96642 8.11993 5.91576 8.20568 5.85927 8.28649V16.3636H13.749C14.5753 16.3636 15.2786 15.774 15.4043 14.9758L16.3051 9.24849C16.4609 8.25736 15.6765 7.36364 14.6506 7.36364H11.7185C10.794 7.36364 10.0445 6.63101 10.0445 5.72727V2.83567ZM1.67408 15.5455C1.67408 15.9973 2.04883 16.3636 2.51112 16.3636H4.18519V9H2.51112C2.04883 9 1.67408 9.36631 1.67408 9.81818V15.5455ZM11.7185 5.72727H14.6506C16.7027 5.72727 18.2724 7.5153 17.9604 9.49778L17.0587 15.2251C16.8074 16.8215 15.4015 18 13.749 18H2.51112C1.12426 18 0 16.9011 0 15.5455V9.81818C0 8.46257 1.12426 7.36364 2.51112 7.36364H4.47865L7.42381 0.885298L7.47286 0.786222C7.73677 0.304615 8.25255 0 8.81751 0L8.9671 0.00399503C10.4998 0.0801056 11.7185 1.31862 11.7185 2.83567V5.72727Z" fill="currentColor"/>
</svg>
