<svg width="20" height="20" viewBox="0 0 20 20" fill="none" xmlns="http://www.w3.org/2000/svg">
<path d="M6 15.8046C6 14.7001 5.10457 13.8046 4 13.8046C2.89543 13.8046 2 14.7001 2 15.8046C2.00002 16.9092 2.89544 17.8046 4 17.8046C5.10456 17.8046 5.99998 16.9092 6 15.8046ZM18 13.8046C18 12.7001 17.1046 11.8046 16 11.8046C14.8954 11.8046 14 12.7001 14 13.8046C14 14.9092 14.8954 15.8046 16 15.8046C17.1046 15.8046 18 14.9092 18 13.8046ZM19.9951 14.0107C19.8879 16.1241 18.14 17.8046 16 17.8046C13.7909 17.8046 12 16.0138 12 13.8046C12 11.5955 13.7909 9.80465 16 9.80465C16.7288 9.80465 17.4116 10.0003 18 10.3408V2.69332C18 2.35063 17.9993 2.15761 17.9873 2.01949C17.9868 2.01359 17.9849 2.00815 17.9844 2.00289C17.9792 2.00324 17.9735 2.00341 17.9678 2.00387C17.8296 2.01479 17.6394 2.04525 17.3018 2.10152L8.50098 3.56832C8.24891 3.61033 8.11432 3.63369 8.01855 3.65719C8.01517 3.65802 8.01184 3.65836 8.00879 3.65914C8.00853 3.66224 8.00807 3.66548 8.00781 3.66891C8.00037 3.76729 8 3.90431 8 4.16012V15.8046L7.99512 16.0107C7.88787 18.1241 6.14002 19.8046 4 19.8046C1.79087 19.8046 2.01006e-05 18.0138 0 15.8046C0 13.5955 1.79086 11.8046 4 11.8046C4.72876 11.8046 5.41155 12.0003 6 12.3408V4.16012C6 3.93441 5.99922 3.70971 6.01367 3.51852C6.02908 3.31478 6.06501 3.07772 6.1748 2.83297C6.32925 2.4887 6.57838 2.19523 6.89258 1.98629C7.1159 1.83779 7.3436 1.76349 7.54199 1.7148C7.72822 1.66911 7.95019 1.63277 8.17285 1.59566L16.9727 0.128867C17.2755 0.0783873 17.5659 0.0290418 17.8105 0.00972663C18.0646 -0.0103226 18.3746 -0.00916575 18.6963 0.110313C19.1346 0.27313 19.5017 0.584578 19.7344 0.990195C19.9051 1.28789 19.9575 1.59373 19.9795 1.84762C20.0006 2.09208 20 2.38642 20 2.69332V13.8046L19.9951 14.0107Z" fill="currentColor"/>
</svg>
