<svg width="20" height="20" viewBox="0 0 20 20" fill="none" xmlns="http://www.w3.org/2000/svg">
<path d="M18 5.79981C18 4.94342 17.9997 4.36117 17.9629 3.91113C17.9271 3.47272 17.8619 3.2482 17.7822 3.0918C17.5905 2.71555 17.2845 2.40951 16.9082 2.21778C16.7518 2.13809 16.5273 2.07293 16.0889 2.03711C15.6388 2.00035 15.0566 2 14.2002 2H5.79981C4.94342 2 4.36117 2.00035 3.91113 2.03711C3.47272 2.07293 3.2482 2.13809 3.0918 2.21778C2.71555 2.40951 2.40951 2.71555 2.21778 3.0918C2.13809 3.2482 2.07293 3.47272 2.03711 3.91113C2.00035 4.36117 2 4.94342 2 5.79981V14.2002C2 15.0566 2.00035 15.6388 2.03711 16.0889C2.07293 16.5273 2.13809 16.7518 2.21778 16.9082C2.40951 17.2845 2.71555 17.5905 3.0918 17.7822C3.2482 17.8619 3.47272 17.9271 3.91113 17.9629C4.36117 17.9997 4.94342 18 5.79981 18H14.2002C15.0566 18 15.6388 17.9997 16.0889 17.9629C16.5273 17.9271 16.7518 17.8619 16.9082 17.7822C17.2845 17.5905 17.5905 17.2845 17.7822 16.9082C17.8619 16.7518 17.9271 16.5273 17.9629 16.0889C17.9997 15.6388 18 15.0566 18 14.2002V5.79981ZM20 14.2002C20 15.0237 20.001 15.7016 19.9561 16.252C19.9101 16.814 19.8117 17.3311 19.5645 17.8164C19.181 18.5689 18.5689 19.181 17.8164 19.5645C17.3311 19.8117 16.814 19.9101 16.252 19.9561C15.7016 20.001 15.0237 20 14.2002 20H5.79981C4.97632 20 4.29843 20.001 3.74805 19.9561C3.18599 19.9101 2.6689 19.8117 2.1836 19.5645C1.43109 19.181 0.819017 18.5689 0.435549 17.8164C0.188274 17.3311 0.0898762 16.814 0.0439473 16.252C-0.00102053 15.7016 1.82648e-06 15.0237 1.94926e-06 14.2002V5.79981C1.82678e-06 4.97632 -0.00102054 4.29843 0.0439473 3.74805C0.0898762 3.18599 0.188274 2.6689 0.435549 2.1836C0.819018 1.43109 1.43109 0.819018 2.1836 0.435549C2.6689 0.188274 3.18599 0.0898762 3.74805 0.0439473C4.29843 -0.00102053 4.97632 1.82649e-06 5.79981 1.94927e-06H14.2002C15.0237 1.82708e-06 15.7016 -0.00102054 16.252 0.0439473C16.814 0.0898762 17.3311 0.188274 17.8164 0.435549C18.5689 0.819017 19.181 1.43109 19.5645 2.1836C19.8117 2.6689 19.9101 3.18599 19.9561 3.74805C20.001 4.29843 20 4.97632 20 5.79981V14.2002Z" fill="currentColor"/>
<path d="M18 5.79981C18 4.94342 17.9997 4.36117 17.9629 3.91113C17.9271 3.47272 17.8619 3.2482 17.7822 3.0918C17.5905 2.71555 17.2845 2.40951 16.9082 2.21778C16.7518 2.13809 16.5273 2.07293 16.0889 2.03711C15.6388 2.00035 15.0566 2 14.2002 2H5.79981C4.94342 2 4.36117 2.00035 3.91113 2.03711C3.47272 2.07293 3.2482 2.13809 3.0918 2.21778C2.71555 2.40951 2.40951 2.71555 2.21778 3.0918C2.13809 3.2482 2.07293 3.47272 2.03711 3.91113C2.00035 4.36117 2 4.94342 2 5.79981V14.2002C2 15.0566 2.00035 15.6388 2.03711 16.0889C2.07293 16.5273 2.13809 16.7518 2.21778 16.9082C2.40951 17.2845 2.71555 17.5905 3.0918 17.7822C3.2482 17.8619 3.47272 17.9271 3.91113 17.9629C4.36117 17.9997 4.94342 18 5.79981 18H14.2002C15.0566 18 15.6388 17.9997 16.0889 17.9629C16.5273 17.9271 16.7518 17.8619 16.9082 17.7822C17.2845 17.5905 17.5905 17.2845 17.7822 16.9082C17.8619 16.7518 17.9271 16.5273 17.9629 16.0889C17.9997 15.6388 18 15.0566 18 14.2002V5.79981Z" fill="currentColor"/>
</svg>
