<svg width="13" height="13" viewBox="0 0 13 13" fill="none" xmlns="http://www.w3.org/2000/svg">
<path d="M9.01661 0.683371C9.92787 -0.227796 11.4053 -0.227785 12.3166 0.683371C13.2278 1.59463 13.2278 3.07204 12.3166 3.98333L5.44165 10.8588C5.2881 11.0124 5.17547 11.1263 5.04761 11.2255C4.94014 11.3089 4.82579 11.3832 4.70595 11.4475C4.5633 11.5241 4.41343 11.5809 4.21071 11.6588L0.828605 12.9594C0.603786 13.0459 0.348936 12.9916 0.178612 12.8213C0.00841128 12.651 -0.0458278 12.3966 0.0405182 12.1719L1.34169 8.78922L1.44765 8.51898C1.48104 8.43845 1.51416 8.36523 1.55241 8.29399C1.61673 8.17416 1.69105 8.05977 1.77443 7.95232C1.87361 7.82454 1.98768 7.71229 2.14109 7.55888L9.01661 0.683371ZM1.67026 11.3291L3.47679 10.6344L2.3649 9.52254L1.67026 11.3291ZM11.4547 1.54526C11.0195 1.11017 10.3137 1.11016 9.87851 1.54526L3.00358 8.42077C3.00069 8.42366 2.99748 8.42628 2.99465 8.4291C3.02875 8.46248 3.06244 8.49629 3.09465 8.52851L4.47202 9.90528C4.50405 9.9373 4.53705 9.97138 4.57023 10.0053C4.57308 10.0024 4.57625 9.99985 4.57916 9.99694L11.4547 3.12143C11.8898 2.68621 11.8899 1.98046 11.4547 1.54526Z" fill="currentColor"/>
</svg>
