<svg width="17" height="21" viewBox="0 0 17 21" fill="none" xmlns="http://www.w3.org/2000/svg">
<path d="M2.04883 0C2.43321 0.0176285 2.76347 0.169632 3.0127 0.304688C3.30644 0.463876 3.65456 0.696788 4.042 0.955078L14.5576 7.96582C14.8754 8.17767 15.1713 8.37311 15.3965 8.55469C15.6233 8.73759 15.891 8.99131 16.0449 9.3623C16.2483 9.85267 16.2482 10.4041 16.0449 10.8945C15.891 11.2656 15.6233 11.5202 15.3965 11.7031C15.1713 11.8847 14.8754 12.0802 14.5576 12.292L4.042 19.3027C3.65461 19.561 3.30641 19.794 3.0127 19.9531C2.72787 20.1075 2.33708 20.2841 1.88087 20.2568C1.29715 20.222 0.75809 19.9331 0.40528 19.4668C0.129458 19.1022 0.0588667 18.6791 0.0293031 18.3564C-0.00117475 18.0238 5.54486e-06 17.6052 6.23833e-06 17.1396V3.11816C5.87324e-06 2.65265 -0.00115879 2.23402 0.0293031 1.90137C0.0588646 1.57873 0.129495 1.15561 0.40528 0.791016C0.758088 0.324638 1.29711 0.0358312 1.88087 0.000976562L2.04883 0ZM2.00001 17.1396C2.00001 17.6447 2.00137 17.9542 2.02149 18.1738C2.02267 18.1868 2.02515 18.1987 2.02637 18.21C2.03653 18.2047 2.04895 18.2006 2.06055 18.1943C2.25446 18.0892 2.51261 17.9187 2.93262 17.6387L13.4482 10.6279C13.798 10.3948 14.0029 10.2566 14.1406 10.1455C14.1477 10.1398 14.1531 10.133 14.1592 10.1279C14.1533 10.1231 14.1473 10.1167 14.1406 10.1113C14.0029 10.0003 13.7977 9.86283 13.4482 9.62988L2.93262 2.61914C2.51232 2.33894 2.25451 2.16764 2.06055 2.0625C2.04868 2.05607 2.03673 2.05127 2.02637 2.0459C2.02508 2.0576 2.02274 2.0704 2.02149 2.08398C2.00139 2.30367 2.00001 2.6131 2.00001 3.11816V17.1396Z" fill="currentColor"/>
<path d="M2.00001 17.1396C2.00001 17.6447 2.00137 17.9542 2.02149 18.1738C2.02267 18.1868 2.02515 18.1987 2.02637 18.21C2.03653 18.2047 2.04895 18.2006 2.06055 18.1943C2.25446 18.0892 2.51261 17.9187 2.93262 17.6387L13.4482 10.6279C13.798 10.3948 14.0029 10.2566 14.1406 10.1455C14.1477 10.1398 14.1531 10.133 14.1592 10.1279C14.1533 10.1231 14.1473 10.1167 14.1406 10.1113C14.0029 10.0003 13.7977 9.86283 13.4482 9.62988L2.93262 2.61914C2.51232 2.33894 2.25451 2.16764 2.06055 2.0625C2.04868 2.05607 2.03673 2.05127 2.02637 2.0459C2.02508 2.0576 2.02274 2.0704 2.02149 2.08398C2.00139 2.30367 2.00001 2.6131 2.00001 3.11816V17.1396Z" fill="currentColor"/>
</svg>
