<svg width="12" height="14" viewBox="0 0 12 14" fill="none" xmlns="http://www.w3.org/2000/svg">
<path d="M5.36907 7.22438C5.76184 6.90402 6.34084 6.92662 6.70696 7.29273L11.707 12.2927L11.7753 12.3689C12.0957 12.7617 12.0731 13.3407 11.707 13.7068C11.3408 14.0729 10.7618 14.0955 10.3691 13.7752L10.2929 13.7068L5.99992 9.41383L1.70696 13.7068C1.31643 14.0973 0.683417 14.0973 0.292893 13.7068C-0.0976311 13.3163 -0.0976311 12.6833 0.292893 12.2927L5.29289 7.29273L5.36907 7.22438ZM5.36907 0.224375C5.76184 -0.0959754 6.34084 -0.0733816 6.70696 0.292734L11.707 5.29273L11.7753 5.36891C12.0957 5.76168 12.0731 6.34068 11.707 6.7068C11.3408 7.07291 10.7618 7.09551 10.3691 6.77516L10.2929 6.7068L5.99992 2.41383L1.70696 6.7068C1.31643 7.09732 0.683417 7.09732 0.292893 6.7068C-0.0976311 6.31627 -0.0976311 5.68326 0.292893 5.29273L5.29289 0.292734L5.36907 0.224375Z" fill="currentColor"/>
</svg>
