<svg width="20" height="20" viewBox="0 0 20 20" fill="none" xmlns="http://www.w3.org/2000/svg">
<path d="M1.94991e-06 14.2002V5.79981C1.82743e-06 4.97632 -0.00102066 4.29843 0.0439473 3.74805C0.0898763 3.18599 0.188273 2.6689 0.435549 2.1836C0.819017 1.43109 1.43109 0.819018 2.1836 0.435549C2.6689 0.188274 3.18599 0.0898762 3.74805 0.0439473C4.29843 -0.00102052 4.97632 1.82615e-06 5.79981 1.94923e-06H7C7.55229 1.94923e-06 8 0.447717 8 1C8 1.55229 7.55229 2 7 2H5.79981C4.94342 2 4.36117 2.00035 3.91113 2.03711C3.47272 2.07293 3.2482 2.13809 3.0918 2.21778C2.71555 2.40951 2.40951 2.71555 2.21778 3.0918C2.13809 3.2482 2.07293 3.47272 2.03711 3.91113C2.00035 4.36117 2 4.94342 2 5.79981V14.2002C2 15.0566 2.00035 15.6388 2.03711 16.0889C2.07293 16.5273 2.13809 16.7518 2.21778 16.9082C2.40951 17.2845 2.71554 17.5905 3.0918 17.7822C3.2482 17.8619 3.47272 17.9271 3.91113 17.9629C4.36117 17.9997 4.94342 18 5.79981 18H7C7.55229 18 8 18.4477 8 19C8 19.5523 7.55229 20 7 20H5.79981C4.97632 20 4.29843 20.001 3.74805 19.9561C3.18599 19.9101 2.6689 19.8117 2.1836 19.5645C1.43109 19.181 0.819018 18.5689 0.435549 17.8164C0.188273 17.3311 0.0898761 16.814 0.0439473 16.252C-0.0010206 15.7016 1.82773e-06 15.0237 1.94991e-06 14.2002ZM13.293 4.29297C13.6591 3.92685 14.2381 3.90426 14.6309 4.22461L14.707 4.29297L19.707 9.29297C20.0976 9.68349 20.0976 10.3165 19.707 10.707L14.707 15.707C14.3165 16.0976 13.6835 16.0976 13.293 15.707C12.9024 15.3165 12.9024 14.6835 13.293 14.293L16.5859 11H7C6.44772 11 6 10.5523 6 10C6 9.44772 6.44772 9 7 9H16.5859L13.293 5.70703L13.2246 5.63086C12.9043 5.23809 12.9269 4.65909 13.293 4.29297Z" fill="white"/>
</svg>
