<svg width="18" height="18" viewBox="0 0 18 18" fill="none" xmlns="http://www.w3.org/2000/svg">
<path d="M8.53776 0.0697594C8.85555 -0.0390349 9.20584 -0.0204643 9.51276 0.124692C9.81577 0.268037 9.983 0.516513 10.0674 0.653206C10.159 0.80166 10.2537 0.993007 10.3451 1.17673L12.1835 4.87134L16.2975 5.46893C16.5017 5.49854 16.7144 5.52814 16.8849 5.56881C17.042 5.6063 17.332 5.6875 17.5628 5.9292C17.8301 6.20906 17.9561 6.59405 17.9052 6.97624C17.8611 7.30641 17.6737 7.54121 17.5687 7.6629C17.4547 7.79507 17.3003 7.94289 17.1525 8.08571L14.1772 10.9597L14.8795 15.0197C14.9144 15.2217 14.9512 15.432 14.9651 15.6056C14.9778 15.7654 14.9903 16.0644 14.83 16.3572C14.6444 16.6959 14.3143 16.9336 13.9322 17.0039C13.6018 17.0645 13.3186 16.9604 13.1694 16.899C13.0074 16.8323 12.8177 16.7322 12.635 16.6368L8.95813 14.7184L5.28131 16.6368C5.09854 16.7322 4.90888 16.8323 4.74682 16.899C4.59766 16.9604 4.31447 17.0646 3.9841 17.0039C3.60192 16.9336 3.27186 16.6959 3.08629 16.3572C2.92599 16.0644 2.93846 15.7654 2.9512 15.6056C2.96506 15.432 3.00186 15.2217 3.03679 15.0197L3.73825 10.9597L0.763739 8.08571C0.615917 7.94289 0.461607 7.79508 0.347559 7.6629C0.242603 7.54121 0.0551677 7.30641 0.0110901 6.97624C-0.0397929 6.59405 0.0861391 6.20906 0.353432 5.9292C0.584293 5.6875 0.87429 5.60631 1.0314 5.56881C1.2019 5.52814 1.41455 5.49854 1.61875 5.46893L5.73189 4.87134L7.57114 1.17673C7.66257 0.993004 7.75725 0.801663 7.84888 0.653206C7.93326 0.516519 8.1005 0.268043 8.4035 0.124692L8.53776 0.0697594ZM7.23383 5.70697C7.19859 5.7778 7.11022 5.97313 6.96197 6.13145C6.8485 6.2526 6.71207 6.35136 6.5609 6.42109C6.36345 6.51206 6.14879 6.53452 6.07004 6.54594L2.21114 7.10525L5.00274 9.80109C5.0456 9.8425 5.1467 9.93385 5.23936 10.0566L5.32662 10.1889L5.382 10.3005C5.41521 10.3761 5.44125 10.4547 5.45919 10.5352L5.48017 10.6575L5.48772 10.8157C5.48552 10.9686 5.45759 11.1008 5.44745 11.1594L4.78961 14.9672L8.2382 13.1686C8.30875 13.1318 8.49583 13.0247 8.70977 12.983L8.83395 12.9647C8.91652 12.9568 8.99974 12.9568 9.08231 12.9647L9.2065 12.983L9.36005 13.0246C9.50637 13.0741 9.62511 13.141 9.67806 13.1686L13.1258 14.9672L12.4688 11.1594C12.4553 11.0813 12.41 10.872 12.4361 10.6575L12.4571 10.5352C12.484 10.4143 12.5287 10.2975 12.5896 10.1889C12.6958 9.99991 12.8564 9.85628 12.9135 9.80109L15.7043 7.10525L11.8462 6.54594C11.7675 6.53452 11.5528 6.51207 11.3554 6.42109C11.2042 6.35136 11.0678 6.2526 10.9543 6.13145C10.8062 5.97326 10.7186 5.77794 10.6833 5.70697L8.95813 2.24125L7.23383 5.70697Z" fill="currentColor"/>
<path d="M7.23383 5.70697C7.19859 5.7778 7.11022 5.97313 6.96197 6.13145C6.8485 6.2526 6.71207 6.35136 6.5609 6.42109C6.36345 6.51206 6.14879 6.53452 6.07004 6.54594L2.21114 7.10525L5.00274 9.80109C5.0456 9.8425 5.1467 9.93385 5.23936 10.0566L5.32662 10.1889L5.382 10.3005C5.41521 10.3761 5.44125 10.4547 5.45919 10.5352L5.48017 10.6575L5.48772 10.8157C5.48552 10.9686 5.45759 11.1008 5.44745 11.1594L4.78961 14.9672L8.2382 13.1686C8.30875 13.1318 8.49583 13.0247 8.70977 12.983L8.83395 12.9647C8.91652 12.9568 8.99974 12.9568 9.08231 12.9647L9.2065 12.983L9.36005 13.0246C9.50637 13.0741 9.62511 13.141 9.67806 13.1686L13.1258 14.9672L12.4688 11.1594C12.4553 11.0813 12.41 10.872 12.4361 10.6575L12.4571 10.5352C12.484 10.4143 12.5287 10.2975 12.5896 10.1889C12.6958 9.99991 12.8564 9.85628 12.9135 9.80109L15.7043 7.10525L11.8462 6.54594C11.7675 6.53452 11.5528 6.51207 11.3554 6.42109C11.2042 6.35136 11.0678 6.2526 10.9543 6.13145C10.8062 5.97326 10.7186 5.77794 10.6833 5.70697L8.95813 2.24125L7.23383 5.70697Z" fill="currentColor"/>
</svg>
