<svg width="16" height="22" viewBox="0 0 16 22" fill="none" xmlns="http://www.w3.org/2000/svg">
<path d="M10.9189 6.30859C10.9189 6.21519 10.9181 6.09131 10.9326 5.96484C10.9442 5.86398 10.9635 5.76395 10.9902 5.66602C11.0237 5.54336 11.0708 5.42944 11.1055 5.34277L12.1133 2.82324C12.2674 2.43793 12.3564 2.21086 12.4063 2.04395C12.4088 2.0354 12.41 2.02706 12.4121 2.01953C12.4045 2.01873 12.3963 2.01739 12.3877 2.0166C12.2142 2.00087 11.9706 2 11.5557 2H4.28223C3.86767 2 3.62457 2.00088 3.45117 2.0166C3.44258 2.01738 3.43433 2.01873 3.42676 2.01953C3.42888 2.02706 3.43007 2.0354 3.43262 2.04395C3.48243 2.21086 3.57146 2.43793 3.72559 2.82324L4.7334 5.34277C4.76807 5.42944 4.81516 5.54337 4.84863 5.66602C4.86199 5.71498 4.87322 5.76465 4.88281 5.81445L4.90625 5.96484L4.91797 6.14844C4.91942 6.20695 4.91895 6.26177 4.91895 6.30859V8.43848C4.91895 8.60644 4.92446 8.82981 4.87891 9.05176C4.84267 9.22816 4.78212 9.39921 4.7002 9.55957C4.5972 9.76101 4.45444 9.93147 4.34961 10.0625L2.78027 12.0254C2.43502 12.457 2.21942 12.7268 2.08399 12.9316C2.07529 12.9448 2.0688 12.9582 2.06152 12.9697C2.07515 12.9712 2.0896 12.9751 2.10547 12.9766C2.34998 12.9988 2.69545 13 3.24805 13H12.5908C13.1434 13 13.4889 12.9988 13.7334 12.9766C13.7489 12.9752 13.763 12.9712 13.7764 12.9697C13.7692 12.9584 13.7635 12.9447 13.7549 12.9316C13.6195 12.7268 13.4039 12.457 13.0586 12.0254L11.4893 10.0625C11.3844 9.93148 11.2417 9.76102 11.1387 9.55957C11.0567 9.39921 10.9962 9.22815 10.96 9.05176C10.9144 8.82981 10.9189 8.60644 10.9189 8.43848V6.30859ZM12.9189 8.43848C12.9189 8.54986 12.9193 8.60537 12.9209 8.64551V8.64844C12.9215 8.64927 12.9222 8.65046 12.9229 8.65137C12.9467 8.68368 12.9813 8.72666 13.0508 8.81348L14.6211 10.7754C14.9415 11.1759 15.2253 11.5303 15.4229 11.8291C15.6102 12.1124 15.8383 12.5136 15.8389 12.998C15.8395 13.607 15.5628 14.1835 15.0869 14.5635C14.7083 14.8657 14.2523 14.938 13.9141 14.9688C13.5575 15.0011 13.1035 15 12.5908 15H8.91895V21C8.91895 21.5523 8.47123 22 7.91895 22C7.36686 21.9998 6.91895 21.5521 6.91895 21V15H3.24805C2.73529 15 2.28144 15.0011 1.92481 14.9688C1.58654 14.938 1.13063 14.8658 0.751954 14.5635C0.275996 14.1835 -0.000594057 13.607 9.58057e-07 12.998C0.000524105 12.5135 0.228695 12.1124 0.416017 11.8291C0.613552 11.5303 0.897364 11.1759 1.21777 10.7754L2.78809 8.81348C2.85755 8.72665 2.8922 8.68368 2.91602 8.65137L2.91797 8.64551C2.91955 8.60537 2.91895 8.54986 2.91895 8.43848V6.19434L2.91797 6.19336V6.19141C2.91027 6.17082 2.89894 6.14236 2.87598 6.08496L1.86817 3.56543C1.7283 3.21577 1.59748 2.89052 1.51563 2.61621C1.43298 2.33922 1.35753 1.9823 1.43848 1.59277C1.54576 1.07698 1.85195 0.624158 2.29102 0.333008C2.62267 0.113157 2.98261 0.0515199 3.27051 0.0253912C3.55553 -0.000454126 3.90579 -9.41141e-08 4.28223 5.95178e-07H11.5557C11.9323 5.95178e-07 12.2832 -0.000474133 12.5684 0.0253912C12.8563 0.0515198 13.2162 0.113157 13.5479 0.333008C13.9869 0.624164 14.2931 1.07701 14.4004 1.59277C14.4813 1.98228 14.4059 2.33923 14.3232 2.61621C14.2414 2.8906 14.1096 3.21566 13.9697 3.56543L12.9619 6.08496C12.939 6.14232 12.9286 6.17083 12.9209 6.19141L12.9199 6.19336C12.9194 6.21533 12.9189 6.24678 12.9189 6.30859V8.43848Z" fill="currentColor"/>
</svg>
