<svg width="22" height="22" viewBox="0 0 22 22" fill="none" xmlns="http://www.w3.org/2000/svg">
<path d="M18.8705 0.536978C19.5865 -0.178993 20.7471 -0.178993 21.463 0.536978C22.179 1.25295 22.179 2.41349 21.463 3.12946L13.5925 11L21.463 18.8705L21.5883 19.0102C22.1757 19.7303 22.1342 20.7918 21.463 21.463C20.7918 22.1342 19.7303 22.1757 19.0102 21.5883L18.8705 21.463L11 13.5925L3.12946 21.463C2.41349 22.179 1.25295 22.179 0.536978 21.463C-0.178993 20.7471 -0.178993 19.5865 0.536978 18.8705L8.40752 11L0.536978 3.12946C-0.178993 2.41349 -0.178993 1.25295 0.536978 0.536978C1.25295 -0.178993 2.41349 -0.178993 3.12946 0.536978L11 8.40752L18.8705 0.536978Z" fill="currentColor"/>
</svg>
