<svg width="468" height="85" viewBox="0 0 468 85" fill="none" xmlns="http://www.w3.org/2000/svg">
<g clip-path="url(#clip0_3321_10711)">
<path d="M162.681 68.048L159.064 57.3646H139.098C138.548 59.0147 137.964 60.8145 137.364 62.748L135.715 68.048H126.031L143.914 18.5312H154.298L171.714 68.048H162.681ZM149.048 29.2979C147.848 32.6647 146.681 35.9146 145.581 39.0814C144.481 42.2479 143.264 45.5979 141.965 49.1645H156.198L149.048 29.2979Z" fill="black"/>
<path d="M200.765 18.6992H182.549V68.1659H190.965V51.316H200.765C210.749 51.316 215.599 47.1159 215.599 38.4659V31.4658C215.599 22.8659 210.749 18.6992 200.765 18.6992ZM190.965 26.4825H200.566C206.265 26.4825 207.182 27.9824 207.182 31.5493V38.4826C207.182 41.9825 206.232 43.5491 200.566 43.5491H190.965V26.4825Z" fill="black"/>
<path d="M243.547 18.6992H225.33V68.1659H233.747V51.316H243.547C253.53 51.316 258.38 47.1159 258.38 38.4659V31.4658C258.38 22.8659 253.53 18.6992 243.547 18.6992ZM233.747 26.4825H243.347C249.047 26.4825 249.963 27.9824 249.963 31.5493V38.4826C249.963 41.9825 249.013 43.5491 243.347 43.5491H233.747V26.4825Z" fill="black"/>
<path d="M283.285 63.2166H306.134V68.1668H278.299V18.75H283.285V63.2166Z" fill="black"/>
<path d="M349.899 53.781C349.899 62.0143 344.783 68.7811 332.015 68.7811C319.249 68.7811 314.133 62.031 314.133 53.781V32.8476C314.133 24.6143 319.249 17.8477 332.015 17.8477C344.783 17.8477 349.899 24.5977 349.899 32.8476V53.781ZM318.765 53.8476C318.765 60.9478 323.098 64.9311 332.198 64.9311C341.298 64.9311 345.615 60.9478 345.615 53.8476V32.7809C345.615 25.681 341.282 21.6977 332.198 21.6977C323.098 21.6977 318.765 25.681 318.765 32.7809V53.8476Z" fill="black"/>
<path d="M357.484 18.75H362.436L378.418 63.2166L394.435 18.75H399.501L381.733 68.1832H375.167L357.484 18.75Z" fill="black"/>
<path d="M414.835 68.1832H409.852V18.75H414.835V68.1832Z" fill="black"/>
<path d="M438.719 24.7V68.1832H434.033V18.75H441.383L462.901 61.0499V18.75H467.584V68.1832H461.634L438.719 24.7Z" fill="black"/>
<path d="M88.6992 61.6523C82.5157 61.6523 77.4824 66.6857 77.4824 72.8689C77.4824 79.0524 82.5157 84.0857 88.6992 84.0857C94.8825 84.0857 99.9158 79.0524 99.9158 72.8689C99.9158 66.7021 94.8825 61.6523 88.6992 61.6523ZM95.3324 72.8856C95.3324 76.5523 92.3492 79.5188 88.6992 79.5188C85.0325 79.5188 82.0658 76.5356 82.0658 72.8856C82.0658 69.2189 85.049 66.2522 88.6992 66.2522C92.3492 66.2522 95.3324 69.2189 95.3324 72.8856Z" fill="black"/>
<path d="M12.7167 61.6523C6.53332 61.6523 1.5 66.6857 1.5 72.8689C1.5 79.0524 6.53332 84.0857 12.7167 84.0857C18.9 84.0857 23.9333 79.0524 23.9333 72.8689C23.9333 66.7021 18.9 61.6523 12.7167 61.6523ZM19.35 72.8856C19.35 76.5523 16.3667 79.5188 12.7167 79.5188C9.05001 79.5188 6.08333 76.5356 6.08333 72.8856C6.08333 69.2189 9.06667 66.2522 12.7167 66.2522C16.3667 66.2522 19.35 69.2189 19.35 72.8856Z" fill="black"/>
<path d="M50.697 0.1875C44.5138 0.1875 39.4805 5.22082 39.4805 11.4042C39.4805 17.5875 44.5138 22.6208 50.697 22.6208C56.8805 22.6208 61.9138 17.5875 61.9138 11.4042C61.9138 5.22082 56.8805 0.1875 50.697 0.1875ZM57.3305 11.4208C57.3305 15.0875 54.347 18.0542 50.697 18.0542C47.0303 18.0542 44.0638 15.0708 44.0638 11.4208C44.0638 7.75417 47.0471 4.78743 50.697 4.78743C54.3637 4.77083 57.3305 7.75417 57.3305 11.4208Z" fill="black"/>
<path d="M84.5529 62.8977L59.7695 18.281L59.5363 17.8477L59.2194 18.231C58.3694 19.2976 57.3197 20.1476 56.1363 20.7977L55.8361 20.9643L56.003 21.2643L77.9361 60.7642C70.2861 59.0478 60.7696 58.1144 51.0196 58.1144C40.2695 58.1144 30.7194 59.031 23.3195 60.7478L45.2528 21.2643L45.4197 20.9643L45.1195 20.7977C43.9194 20.1643 42.8861 19.2976 42.0361 18.231L41.7195 17.8477L41.4863 18.281L16.7195 62.8977L16.5195 63.2476L16.8862 63.3809C18.1029 63.7977 19.2195 65.3144 20.2029 66.1809L20.3695 66.3309L20.5695 66.2311L20.6529 66.2143C28.5527 64.0309 39.0696 62.8643 51.0363 62.8643C61.8029 62.8643 72.2528 64.0476 80.4862 66.1976L80.653 66.5142L80.9696 66.2643L81.0363 66.2143C82.0361 65.3311 83.1528 63.8144 84.3696 63.3976L84.7361 63.2643L84.5529 62.8977Z" fill="black"/>
</g>
<defs>
<clipPath id="clip0_3321_10711">
<rect width="467.5" height="85" fill="white"/>
</clipPath>
</defs>
</svg>
