<svg width="418" height="150" viewBox="0 0 418 150" fill="none" xmlns="http://www.w3.org/2000/svg">
<g clip-path="url(#clip0_3340_10119)">
<path d="M283.7 108.5H283.6C265.8 121.1 244.8 134.3 222.1 148.2L221.2 148.7C221.102 148.741 221.014 148.803 220.944 148.882C220.873 148.961 220.822 149.055 220.793 149.157C220.764 149.259 220.758 149.366 220.777 149.471C220.796 149.575 220.838 149.674 220.9 149.76C220.962 149.845 221.043 149.916 221.137 149.966C221.231 150.016 221.334 150.043 221.44 150.047C221.546 150.051 221.652 150.031 221.749 149.988C221.846 149.945 221.932 149.881 222 149.8L222.7 149.4C242 139.4 264.1 127.5 286.3 115.2L286.7 115C285.39 112.991 284.379 110.801 283.7 108.5ZM400.5 13.9003C372.5 -16.9997 191.9 10.8003 115.2 27.6003L113.4 28.0003C113.224 28.0457 113.069 28.1496 112.96 28.295C112.851 28.4404 112.794 28.6186 112.8 28.8003C112.81 28.8906 112.84 28.9776 112.888 29.0545C112.937 29.1315 113.002 29.1965 113.079 29.2447C113.156 29.2928 113.243 29.3228 113.333 29.3325C113.423 29.3421 113.515 29.3311 113.6 29.3003L115.4 29.0003C179 17.7003 311.3 2.00031 339.7 30.2003C348.4 38.8003 346.4 49.9003 336.3 63.0003C341.876 66.6428 345.819 72.3073 347.3 78.8003C386.6 52.7003 413 27.7003 400.5 13.9003Z" fill="#CC2427"/>
<path d="M295.1 100.399C295.4 111.299 302.3 120.199 311.3 120.199C328.7 120.199 336.1 98.7992 335.6 84.4992C335.2 73.5992 328.2 64.6992 319.2 64.6992C304.2 64.6992 294.5 85.9992 295.1 100.399ZM285.9 99.7992C285.2 81.1992 299.8 62.1992 320.9 62.1992C335.1 62.1992 344.3 71.6992 344.8 86.0992C345.5 105.699 331.9 123.699 309.8 123.699C295.6 123.699 286.4 114.299 285.9 99.7992Z" fill="#013D5B"/>
<path d="M85.4995 94.9016C84.5671 95.2796 83.5939 95.548 82.5995 95.7016L75.9995 96.9016C74.3805 97.0166 72.8082 97.4952 71.3995 98.3016C70.9945 98.5496 70.6497 98.8847 70.3903 99.2825C70.1308 99.6803 69.9632 100.131 69.8995 100.602C69.7966 101.041 69.8383 101.503 70.0185 101.917C70.1986 102.332 70.5076 102.677 70.8995 102.902C72.1776 103.616 73.6409 103.93 75.0995 103.802C76.5914 103.772 78.0721 103.536 79.4995 103.102C80.815 102.717 82.0394 102.07 83.0995 101.202C83.8004 100.586 84.3192 99.7909 84.5995 98.9016C85.0849 97.6168 85.3878 96.2704 85.4995 94.9016ZM103.9 83.5016C103.8 85.2016 103.5 86.7016 103.1 89.3016L99.9995 106.702C99.8346 107.405 99.9128 108.144 100.222 108.798C100.53 109.452 101.051 109.982 101.7 110.302V111.002H83.7995V106.602C81.0822 108.131 78.1961 109.339 75.1995 110.202C72.4288 110.95 69.5695 111.32 66.6995 111.302C60.8995 111.302 57.5995 110.702 55.3995 108.702C53.1995 106.702 51.8995 105.302 51.9995 102.402C52.2143 100.522 52.9797 98.7477 54.1995 97.3016C55.5013 95.8411 57.105 94.6809 58.8995 93.9016C61.2029 92.9261 63.6231 92.2538 66.0995 91.9016C69.1995 91.4016 73.5995 90.9016 79.4995 90.4016C81.498 90.3415 83.4666 89.9003 85.2995 89.1016C86.5995 88.6016 86.9995 88.1016 87.1995 87.1016C87.3995 86.1016 86.9995 84.3016 84.5995 83.8016C78.1995 82.6016 66.1995 84.6016 59.9995 86.2016L63.2995 77.1016C71.2062 75.8482 79.1945 75.1797 87.1995 75.1016C99.8995 75.1016 104 78.8016 103.9 83.5016Z" fill="#013D5B"/>
<path d="M155.5 110.998L161.7 76.0984H178.8L172.6 110.998H155.5ZM162.7 68.0984C163.2 65.1984 167.7 62.8984 172.8 62.8984C177.9 62.8984 181.5 65.1984 181 68.0984C180.5 70.9984 176 73.2984 170.9 73.2984C165.8 73.2984 162.2 70.8984 162.7 68.0984Z" fill="#013D5B"/>
<path d="M239.3 95.0016L236.4 95.8016L229.7 97.0016C228.115 97.1313 226.579 97.6093 225.2 98.4016C224.798 98.6281 224.453 98.9444 224.193 99.326C223.933 99.7076 223.764 100.144 223.7 100.602C223.581 101.045 223.603 101.516 223.765 101.946C223.926 102.377 224.218 102.746 224.6 103.002C225.5 103.602 226.9 103.802 228.9 103.802C230.388 103.806 231.868 103.604 233.3 103.202C234.616 102.817 235.84 102.17 236.9 101.302C237.601 100.686 238.12 99.8909 238.4 99.0016C238.822 97.6985 239.123 96.3596 239.3 95.0016ZM257.7 83.5016C257.6 85.2016 257.3 86.8016 256.9 89.3016L253.8 106.802C253.635 107.505 253.713 108.244 254.022 108.898C254.331 109.552 254.852 110.082 255.5 110.402V111.002H237.6V106.502C234.907 108.104 232.016 109.348 229 110.202C226.192 110.921 223.299 111.257 220.4 111.202C214.7 111.202 211.4 110.602 209.1 108.602C206.8 106.602 205.7 105.202 205.8 102.402C205.99 100.485 206.757 98.6719 208 97.2016C209.308 95.7724 210.912 94.6462 212.7 93.9016C214.957 92.893 217.349 92.2192 219.8 91.9016C223 91.4016 227.4 90.9016 233.3 90.4016C235.28 90.2102 237.228 89.7736 239.1 89.1016C240.3 88.6016 240.8 88.1016 241 87.1016C241.2 86.1016 240.8 84.3016 238.4 83.8016C232 82.5016 220 84.6016 213.8 86.1016L217.1 77.1016C225.006 75.8442 232.995 75.1757 241 75.1016C253.7 75.2016 257.8 78.9016 257.7 83.5016Z" fill="#013D5B"/>
<path d="M49.6004 98.5014C44.9402 99.544 40.1756 100.047 35.4004 100.001C27.3004 100.001 20.8004 96.0014 21.2004 88.5014C21.4004 83.6014 27.3004 73.2014 42.1004 73.2014C46.7882 73.0931 51.4073 74.3434 55.4004 76.8014L57.5004 64.7014C52.1639 62.5819 46.436 61.6273 40.7004 61.9014C21.2004 62.1014 2.50043 70.9014 0.200431 88.9014C-2.09957 106.901 20.2004 111.801 30.1004 111.801C35.8004 111.801 41.8004 111.501 47.3004 111.001L49.6004 98.5014Z" fill="#013D5B"/>
<path d="M188.2 75.9L189.4 68.8L207.2 65L205.3 75.9H214.1L212.4 83H203.9L198.8 111H181.5L186.7 83H180.2L181.5 76H188.2V75.9Z" fill="#013D5B"/>
<path d="M275 110.998H257.6L266.4 62.3984L283.3 62.7984L275 110.998Z" fill="#013D5B"/>
<path d="M133 84.3008C130.807 84.3075 128.672 85.0075 126.9 86.3008C125.085 87.8147 123.907 89.957 123.6 92.3008C123 95.4008 123.3 97.5008 124.5 98.9008C125.199 99.58 126.03 100.108 126.942 100.452C127.854 100.796 128.827 100.949 129.8 100.901C131.316 100.931 132.819 100.624 134.2 100.001C135.534 99.384 136.675 98.4161 137.5 97.2008C138.436 95.8103 139.082 94.246 139.4 92.6008C139.9 89.8008 139.5 87.8008 138.2 86.4008C137.537 85.6958 136.728 85.1431 135.831 84.7805C134.933 84.418 133.967 84.2543 133 84.3008ZM101.9 123.101L110.2 76.3008H125.2L124 82.3008C125.643 80.2462 127.824 78.6883 130.3 77.8008C133.383 76.5417 136.671 75.8637 140 75.8008C143.9 75.8008 146.3 76.0008 149.2 77.5008C151.95 78.8804 154.088 81.2327 155.2 84.1008C156.379 87.1238 156.657 90.4233 156 93.6008C155.584 96.329 154.627 98.9464 153.184 101.299C151.742 103.652 149.843 105.692 147.6 107.301C143 110.601 138.9 111.501 133 111.501C131.215 111.534 129.433 111.332 127.7 110.901C126.508 110.641 125.362 110.203 124.3 109.601C123.263 108.853 122.323 107.98 121.5 107.001L118.7 123.101H101.9Z" fill="#013D5B"/>
<path d="M411.5 88.5984C411.4 85.7984 410 83.8984 407.1 83.8984C400.1 83.8984 392.7 97.5984 391.4 103.098C402.8 103.098 411.8 96.2984 411.5 88.5984ZM413 110.098L414.3 110.998C410.9 117.898 404 123.498 395.8 123.498C389.1 123.498 383.7 119.098 383.4 110.798C382.8 95.7984 396.9 81.8984 408.3 81.8984C413.2 81.8984 417.8 84.0984 418 89.3984C418.4 101.298 401.7 104.898 390.7 105.098C390.34 106.536 390.205 108.02 390.3 109.498C390.5 114.498 393.5 118.598 399.6 118.598C405.7 118.598 410.3 114.298 413 110.098Z" fill="#013D5B"/>
<path d="M344.6 88.1984L348.5 87.7984C349.8 87.7984 350.9 88.0984 351 89.2984C351.1 90.4984 349.7 95.2984 349.4 96.5984L346.7 108.298C345.7 113.098 344.5 118.098 343.5 122.098H350.3L354.1 103.498C365.9 91.2984 370.4 87.2984 373.1 87.2984C373.397 87.2669 373.697 87.3022 373.978 87.4016C374.259 87.501 374.514 87.6621 374.725 87.873C374.936 88.084 375.097 88.3394 375.197 88.6207C375.296 88.9019 375.331 89.2018 375.3 89.4984C375.4 91.5984 374 96.4984 373.6 97.8984L369.6 111.398C368.8 114.498 368.1 117.198 368.2 119.198C368.3 121.198 370.1 123.498 372.7 123.498C377.7 123.498 381.4 118.298 384.5 113.198L383.6 111.498C382.3 113.498 379.4 117.998 377 117.998C376.3 117.998 375.6 117.498 375.6 116.298C375.681 114.428 376.017 112.578 376.6 110.798L381 94.8984C382.1 90.4984 382.7 87.6984 382.7 86.1984C382.7 84.6984 380.8 81.8984 378.2 81.8984C373.7 81.8984 367.7 85.1984 355.1 99.6984H354.9L356.5 92.5984C357.4 88.6984 358.2 84.6984 359 81.8984C354.262 83.582 349.418 84.9516 344.5 85.9984L344.6 88.1984Z" fill="#013D5B"/>
</g>
<defs>
<clipPath id="clip0_3340_10119">
<rect width="418" height="150" fill="white"/>
</clipPath>
</defs>
</svg>
