<svg class="site-logo__svg" width="167" height="34" viewBox="0 0 167 34" fill="none" xmlns="http://www.w3.org/2000/svg">
	<g clip-path="url(#clip0_1532_3109)">
	<path class="site-logo-letter" d="M116.339 25.2933H113.656L108.508 13.2812H111.239L115.01 22.2957L118.781 13.2812H121.512L116.339 25.2933Z"></path>
	<path class="site-logo-letter" d="M44.2373 23.1881C40.9741 23.1881 38.4117 20.6015 38.4117 17.1944C38.4117 13.7873 40.9741 11.2006 44.2373 11.2006C46.3267 11.2006 48.1032 12.1205 49.0708 13.9704L51.0766 12.2474C49.985 10.5749 48.2763 9.4257 46.2373 8.9744C40.5645 7.71855 35.2061 12.4146 35.8565 18.1878C36.3352 22.4384 39.858 25.6292 44.2373 25.6292C47.1631 25.6292 49.6894 24.3373 51.1156 22.0275L49.0953 20.3708C48.1335 22.2509 46.3455 23.1881 44.2373 23.1881Z"></path>
	<path class="site-logo-letter" d="M58.7166 13.0391C55.1635 13.0391 52.2637 15.5767 52.2637 19.2981C52.2637 23.0195 55.1635 25.5817 58.7166 25.5817C62.2696 25.5817 65.1219 23.0195 65.1219 19.2981C65.1219 15.5767 62.2451 13.0391 58.7166 13.0391ZM58.7166 23.4074C56.6141 23.4074 54.728 21.7882 54.728 19.2981C54.728 16.8081 56.6127 15.1889 58.7166 15.1889C60.8204 15.1889 62.6806 16.8081 62.6806 19.2981C62.6806 21.7882 60.7714 23.4074 58.7166 23.4074Z"></path>
	<path class="site-logo-letter" d="M81.6796 12.9663C79.7099 12.9663 78.1944 13.8011 77.2268 15.1392C77.2181 15.1521 77.1994 15.1507 77.1922 15.1377C76.4149 13.7535 74.9239 12.9663 73.2195 12.9663C71.5151 12.9663 70.2822 13.5776 69.4127 14.6129C69.3997 14.6287 69.3752 14.6201 69.3752 14.5999V13.3253C69.3752 13.3138 69.3651 13.3037 69.3535 13.3037H66.882C66.8704 13.3037 66.8604 13.3138 66.8604 13.3253V25.2696C66.8604 25.2811 66.8704 25.2912 66.882 25.2912H69.3535C69.3651 25.2912 69.3752 25.2811 69.3752 25.2696V19.345C69.3752 16.6617 70.6326 15.2848 72.5663 15.2848C74.1135 15.2848 75.2729 16.3964 75.2729 18.1613V25.2696C75.2729 25.2811 75.283 25.2912 75.2945 25.2912H77.7661C77.7776 25.2912 77.7877 25.2811 77.7877 25.2696V19.345C77.7877 16.6617 79.0682 15.2848 81.0264 15.2848C82.5737 15.2848 83.733 16.3964 83.733 18.1613V25.2696C83.733 25.2811 83.7431 25.2912 83.7547 25.2912H86.2017C86.2132 25.2912 86.2233 25.2811 86.2233 25.2696V17.6537C86.2233 14.8263 84.1685 12.9648 81.6796 12.9648V12.9663Z"></path>
	<path class="site-logo-letter" d="M103.483 12.9663C101.514 12.9663 99.9981 13.8011 99.0305 15.1392C99.0218 15.1521 99.0031 15.1507 98.9959 15.1377C98.2187 13.7535 96.7276 12.9663 95.0232 12.9663C93.3188 12.9663 92.0859 13.5776 91.2164 14.6129C91.2034 14.6287 91.1789 14.6201 91.1789 14.5999V13.3253C91.1789 13.3138 91.1688 13.3037 91.1573 13.3037H88.6857C88.6742 13.3037 88.6641 13.3138 88.6641 13.3253V25.2696C88.6641 25.2811 88.6742 25.2912 88.6857 25.2912H91.1573C91.1688 25.2912 91.1789 25.2811 91.1789 25.2696V19.345C91.1789 16.6617 92.4363 15.2848 94.37 15.2848C95.9173 15.2848 97.0766 16.3964 97.0766 18.1613V25.2696C97.0766 25.2811 97.0867 25.2912 97.0982 25.2912H99.5698C99.5813 25.2912 99.5914 25.2811 99.5914 25.2696V19.345C99.5914 16.6617 100.872 15.2848 102.83 15.2848C104.377 15.2848 105.537 16.3964 105.537 18.1613V25.2696C105.537 25.2811 105.547 25.2912 105.558 25.2912H108.005C108.017 25.2912 108.027 25.2811 108.027 25.2696V17.6537C108.027 14.8263 105.972 12.9648 103.483 12.9648V12.9663Z"></path>
	<path class="site-logo-letter" d="M134.023 13.3061H131.551C131.54 13.3061 131.53 13.3162 131.53 13.3278V14.6326C131.53 14.6514 131.507 14.66 131.494 14.6471C130.455 13.5815 128.972 12.9688 127.179 12.9688C124.037 12.9688 121.232 15.5309 121.232 19.3014C121.232 23.0718 124.036 25.634 127.179 25.634C128.972 25.634 130.457 25.0197 131.494 23.9556C131.507 23.9427 131.53 23.9513 131.53 23.9701V25.2749C131.53 25.2865 131.54 25.2966 131.551 25.2966H134.023C134.034 25.2966 134.044 25.2865 134.044 25.2749V13.3307C134.044 13.3191 134.034 13.309 134.023 13.309V13.3061ZM127.59 23.4092C125.391 23.4092 123.674 21.8376 123.674 19.2999C123.674 16.7623 125.39 15.1906 127.59 15.1906C129.571 15.1906 131.53 16.7853 131.53 19.2999C131.53 21.8145 129.571 23.4092 127.59 23.4092Z"></path>
	<path class="site-logo-letter" d="M147.873 13.3047H145.403C145.392 13.3047 145.382 13.3148 145.382 13.3263V18.8399C145.382 21.8606 143.98 23.3111 141.829 23.3111C140.088 23.3111 138.952 21.9817 138.952 20.0237V13.3263C138.952 13.3148 138.942 13.3047 138.93 13.3047H136.46C136.449 13.3047 136.438 13.3148 136.438 13.3263V20.5312C136.438 23.5519 138.348 25.6311 141.249 25.6311C142.991 25.6311 144.379 24.9952 145.346 23.8619C145.359 23.8475 145.382 23.8547 145.382 23.8749V25.2706C145.382 25.2821 145.392 25.2922 145.403 25.2922H147.873C147.885 25.2922 147.895 25.2821 147.895 25.2706V13.3263C147.895 13.3148 147.885 13.3047 147.873 13.3047Z"></path>
	<path class="site-logo-letter" d="M155.993 22.9099C155.516 23.1219 154.971 23.2617 154.566 23.2617C153.647 23.2617 153.018 22.6821 153.018 21.8603V7.70132C153.018 7.68978 153.008 7.67969 152.997 7.67969H150.527C150.515 7.67969 150.505 7.68978 150.505 7.70132V21.9583C150.505 23.9899 152.157 25.6495 154.189 25.6293C155.233 25.6192 155.872 25.338 156.485 25.0093C156.493 25.0049 156.498 24.9949 156.496 24.9848L156.022 22.9229C156.019 22.9099 156.005 22.9027 155.993 22.9085V22.9099Z"></path>
	<path class="site-logo-letter" d="M164.447 22.6337C164.443 22.6207 164.427 22.6163 164.417 22.6236C163.793 23.0258 163.03 23.2623 162.408 23.2623C161.224 23.2623 160.427 22.537 160.427 21.039V15.4057C160.427 15.3941 160.437 15.384 160.449 15.384H164.515C164.527 15.384 164.537 15.3739 164.537 15.3624V13.3265C164.537 13.315 164.527 13.3049 164.515 13.3049H160.449C160.437 13.3049 160.427 13.2948 160.427 13.2833V9.60366C160.427 9.59212 160.417 9.58203 160.405 9.58203H157.934C157.922 9.58203 157.912 9.59212 157.912 9.60366V13.2833C157.912 13.2948 157.902 13.3049 157.89 13.3049H155.347C155.335 13.3049 155.325 13.315 155.325 13.3265V15.3624C155.325 15.3739 155.335 15.384 155.347 15.384H157.89C157.902 15.384 157.912 15.3941 157.912 15.4057V21.2091C157.912 24.1822 159.653 25.6313 162.238 25.6313C163.249 25.6313 164.068 25.3919 165.196 24.7229C165.204 24.7171 165.209 24.7056 165.206 24.6969L164.447 22.6351V22.6337Z"></path>
	<path class="site-logo-iso" d="M14.2209 0.898438L0 9.104V24.8922L14.2209 33.105L28.4417 24.8922V9.104L14.2209 0.898438ZM25.9817 23.472L14.2209 30.2631L2.4658 23.472V10.5242L14.2209 3.73888L25.9817 10.53V23.4706V23.472Z" fill="#844896"></path>
	<path class="site-logo-iso" d="M13.4018 17.477L4.65039 12.4219V22.2063L13.4018 27.2614V17.477Z"></path>
	<path class="site-logo-iso" d="M22.7067 22.8397L15.0498 18.4219V27.2604L22.7067 22.8397Z"></path>
	<path class="site-logo-iso" d="M22.7043 11.1603L14.2239 6.26953L5.74219 11.1603L14.2239 16.0554L22.7043 11.1603Z"></path>
	</g>
	<path class="site-logo-letter" d="M167 9.07485C167 10.0159 166.261 10.7491 165.303 10.7491C164.344 10.7491 163.594 10.0101 163.594 9.07485C163.594 8.13961 164.35 7.41797 165.303 7.41797C166.255 7.41797 167 8.15693 167 9.07485ZM164.021 9.07485C164.021 9.81381 164.564 10.3969 165.314 10.3969C166.065 10.3969 166.578 9.81381 166.578 9.0864C166.578 8.35899 166.042 7.75281 165.308 7.75281C164.575 7.75281 164.027 8.34744 164.027 9.07485H164.021ZM165.043 9.94082H164.662V8.28394C164.812 8.25507 165.025 8.23198 165.297 8.23198C165.609 8.23198 165.753 8.28394 165.874 8.35321C165.967 8.42249 166.036 8.55527 166.036 8.71692C166.036 8.89589 165.897 9.04021 165.695 9.09794V9.12104C165.857 9.17877 165.949 9.3 165.995 9.52515C166.047 9.77917 166.076 9.87731 166.117 9.94082H165.701C165.649 9.88309 165.62 9.72721 165.568 9.5367C165.539 9.35773 165.435 9.27691 165.228 9.27691H165.049V9.94082H165.043ZM165.054 8.9998H165.233C165.447 8.9998 165.614 8.93052 165.614 8.75733C165.614 8.60723 165.505 8.50331 165.262 8.50331C165.164 8.50331 165.089 8.51486 165.049 8.52641V8.9998H165.054Z"></path>
	<defs>
	<clipPath id="clip0_1532_3109">
	<rect width="165.205" height="32.2066" fill="white" transform="translate(0 0.898438)"></rect>
	</clipPath>
	</defs>
	</svg>