<svg width="119" height="32" viewBox="0 0 119 32" fill="none" xmlns="http://www.w3.org/2000/svg">
<path d="M-2.92829e-05 12.1305C-2.92829e-05 7.33887 2.04394 3.51899 5.49523 1.50853C7.20412 0.503295 9.14757 0.000680465 11.2921 0.000680465C16.8878 0.000680465 20.8082 3.48548 21.2774 8.10954H17.9266C17.2899 4.62474 14.9109 2.58077 11.158 2.58077C6.39994 2.58077 3.21671 6.26662 3.21671 12.1305C3.21671 18.0613 6.50046 21.9482 11.158 21.9482C14.9444 21.9482 17.4575 19.8037 18.1276 16.4194H21.3109C21.0093 18.9325 19.937 20.876 18.1276 22.3168C16.3182 23.7576 14.0062 24.4948 11.225 24.4948C4.52351 24.4948 -2.92829e-05 19.7702 -2.92829e-05 12.1305ZM24.0143 15.8833C24.0143 10.8572 27.298 7.30536 31.9556 7.30536C35.0048 7.30536 37.5179 8.8132 38.8917 11.4268C39.5618 12.7336 39.8969 14.2414 39.8969 15.8833C39.8969 21.01 36.5461 24.4948 31.9556 24.4948C27.298 24.4948 24.0143 21.01 24.0143 15.8833ZM26.9964 15.8833C26.9964 19.7367 28.9064 22.2498 31.9556 22.2498C35.0048 22.2498 36.9147 19.7367 36.9147 15.8833C36.9147 13.9734 36.4791 12.4655 35.5744 11.2928C34.6697 10.1535 33.4634 9.58388 31.9556 9.58388C30.4477 9.58388 29.275 10.1535 28.3703 11.2928C27.4655 12.4655 26.9964 13.9734 26.9964 15.8833ZM43.8029 7.84148H46.6846V10.0195C47.5893 8.54514 49.5327 7.30536 51.6437 7.30536C55.3966 7.30536 57.6081 9.6844 57.6081 13.8058V23.9922H54.7264V14.1744C54.7264 11.0582 53.6877 9.58388 51.1746 9.58388C49.8008 9.58388 48.7285 10.0195 47.9243 10.9242C47.0867 11.8289 46.6846 12.9682 46.6846 14.275V23.9922H43.8029V7.84148ZM65.6067 23.9922L60.346 7.84148H63.4622L66.9805 19.8037C67.1481 20.3398 67.2821 20.7084 67.3156 20.9095C67.4832 20.4069 67.6172 20.0383 67.6842 19.8037L71.236 7.84148H74.8213L78.8758 20.7754L79.2108 19.7367L82.6956 7.84148H85.6108L80.4171 23.9922H77.0664L73.0119 10.6226L68.924 23.9922H65.6067ZM89.0401 23.1545C87.9679 22.2498 87.4317 21.077 87.4317 19.5692C87.4317 16.654 89.6097 15.0791 92.793 14.543L96.2443 14.0069C97.4505 13.8394 97.8861 13.3702 97.8861 12.3985C97.8861 10.6561 96.5458 9.58388 94.6359 9.58388C92.2233 9.58388 90.9165 10.8572 90.816 12.9011H87.9344C88.0684 9.88545 90.4474 7.30536 94.4013 7.30536C98.3888 7.30536 100.701 9.65089 100.701 13.4038V23.9922H97.9532V21.8142C97.149 23.5231 95.3731 24.4948 92.994 24.4948C91.4192 24.4948 90.0789 24.0592 89.0401 23.1545ZM90.4139 19.5692C90.4139 21.1775 91.6872 22.2498 93.3961 22.2498C94.7029 22.2498 95.7752 21.8477 96.6129 21.0435C97.4505 20.2393 97.8861 19.2006 97.8861 17.8938V15.5147C97.7186 15.7828 97.1155 16.0174 96.1102 16.2184L93.7647 16.654C91.5197 17.0896 90.4139 18.0613 90.4139 19.5692ZM103.18 7.84148H106.363L111.154 20.1388L115.41 7.84148H118.426L109.747 31.0623H106.698L109.647 23.4226L103.18 7.84148Z" fill="black"/>
</svg>
