<svg width="148" height="29" viewBox="0 0 148 29" fill="none" xmlns="http://www.w3.org/2000/svg">
<path d="M32.5793 9.7075L26.0635 5.8998V0.577148L37.1188 7.037V19.9751L32.5793 17.3226V9.7075Z" fill="#131313"/>
<path d="M4.5399 18.4591L11.0556 22.2664V27.5899L0 21.13V8.19189L4.5399 10.8445V18.4591Z" fill="#131313"/>
<path d="M25.0753 7.61523L7.48877 17.8915L12.0435 20.5529L29.6302 10.2768L25.0753 7.61523Z" fill="#131313"/>
<path d="M30.6031 17.3218L13.0317 27.5894V22.2663L30.6031 11.9995V17.3218Z" fill="#131313"/>
<path d="M25.0756 28.1665L20.5205 25.5051L31.5914 19.0361L36.1468 21.6978L25.0756 28.1665Z" fill="#131313"/>
<path d="M24.0874 0.577148L6.51611 10.8447V16.167L24.0874 5.89978V0.577148Z" fill="#131313"/>
<path d="M5.52747 9.13038L16.5983 2.66136L12.0435 0L0.972656 6.46868L5.52747 9.13038Z" fill="#131313"/>
<path d="M137.146 9.81605H139.954V11.4001C140.322 10.8241 140.81 10.3601 141.418 10.0081C142.042 9.64005 142.77 9.45605 143.602 9.45605C144.434 9.45605 145.154 9.63205 145.762 9.98405C146.386 10.3201 146.858 10.8241 147.178 11.4961C147.514 12.1521 147.682 12.9521 147.682 13.8961V22.0801H144.802V14.1361C144.802 13.4321 144.634 12.8721 144.298 12.4561C143.978 12.0241 143.466 11.8081 142.762 11.8081C142.282 11.8081 141.834 11.9281 141.418 12.1681C141.002 12.4081 140.666 12.7921 140.41 13.3201C140.154 13.8321 140.026 14.4721 140.026 15.2401V22.0801H137.146V9.81605Z" fill="#131313"/>
<path d="M128.347 22.4401C127.163 22.4401 126.091 22.1681 125.131 21.6241C124.171 21.0641 123.419 20.2881 122.875 19.2961C122.331 18.3041 122.059 17.1841 122.059 15.9361C122.059 14.7041 122.331 13.5921 122.875 12.6001C123.419 11.6081 124.171 10.8401 125.131 10.2961C126.091 9.73605 127.163 9.45605 128.347 9.45605C129.515 9.45605 130.579 9.73605 131.539 10.2961C132.499 10.8401 133.251 11.6081 133.795 12.6001C134.339 13.5921 134.611 14.7041 134.611 15.9361C134.611 17.1841 134.339 18.3041 133.795 19.2961C133.251 20.2881 132.499 21.0641 131.539 21.6241C130.579 22.1681 129.515 22.4401 128.347 22.4401ZM128.347 20.1121C129.019 20.1121 129.603 19.9521 130.099 19.6321C130.595 19.312 130.979 18.84 131.251 18.2161C131.539 17.576 131.683 16.8161 131.683 15.9361C131.683 15.0721 131.539 14.3281 131.251 13.7041C130.979 13.0801 130.595 12.6081 130.099 12.2881C129.603 11.9521 129.019 11.7841 128.347 11.7841C127.675 11.7841 127.083 11.9521 126.571 12.2881C126.075 12.6081 125.683 13.0801 125.395 13.7041C125.123 14.3281 124.987 15.0721 124.987 15.9361C124.987 16.8161 125.123 17.576 125.395 18.2161C125.683 18.84 126.075 19.312 126.571 19.6321C127.083 19.9521 127.675 20.1121 128.347 20.1121Z" fill="#131313"/>
<path d="M113.505 27.12C111.889 27.12 110.617 26.8 109.689 26.16C108.777 25.52 108.233 24.584 108.057 23.352H111.033C111.161 23.88 111.433 24.272 111.849 24.528C112.281 24.784 112.865 24.912 113.601 24.912C114.609 24.912 115.369 24.656 115.881 24.144C116.393 23.632 116.649 22.888 116.649 21.912V19.848C116.329 20.424 115.849 20.888 115.209 21.24C114.585 21.592 113.841 21.768 112.977 21.768C111.969 21.768 111.049 21.536 110.217 21.072C109.385 20.592 108.729 19.888 108.249 18.96C107.769 18.032 107.529 16.92 107.529 15.624C107.529 14.344 107.769 13.24 108.249 12.312C108.729 11.384 109.385 10.68 110.217 10.2C111.049 9.71998 111.969 9.47998 112.977 9.47998C113.809 9.47998 114.553 9.66398 115.209 10.032C115.865 10.384 116.345 10.84 116.649 11.4V9.81598H119.505V21.792C119.505 22.816 119.289 23.728 118.857 24.528C118.441 25.328 117.785 25.96 116.889 26.424C115.993 26.888 114.865 27.12 113.505 27.12ZM113.553 19.56C114.177 19.56 114.721 19.392 115.185 19.056C115.665 18.72 116.033 18.256 116.289 17.664C116.561 17.056 116.697 16.376 116.697 15.624C116.697 14.856 116.561 14.176 116.289 13.584C116.033 12.992 115.665 12.528 115.185 12.192C114.721 11.856 114.177 11.688 113.553 11.688C112.913 11.688 112.361 11.848 111.897 12.168C111.433 12.488 111.081 12.944 110.841 13.536C110.601 14.112 110.481 14.808 110.481 15.624C110.481 16.856 110.745 17.824 111.273 18.528C111.801 19.216 112.561 19.56 113.553 19.56Z" fill="#131313"/>
<path d="M98.3485 22.4161C97.1165 22.4161 96.0765 22.0961 95.2285 21.4561C94.3965 20.8001 93.9805 19.8801 93.9805 18.6961C93.9805 17.7841 94.2285 17.0721 94.7245 16.5601C95.2365 16.0321 95.8285 15.6641 96.5005 15.4561C97.1725 15.2481 97.9565 15.0801 98.8525 14.9521L99.7407 14.8561C100.365 14.7761 100.845 14.6801 101.181 14.5681C101.533 14.4561 101.789 14.2961 101.949 14.0881C102.125 13.8801 102.213 13.5841 102.213 13.2001C102.213 12.6881 102.021 12.2881 101.637 12.0001C101.269 11.6961 100.741 11.5441 100.053 11.5441C99.3807 11.5441 98.8365 11.6801 98.4205 11.9521C98.0045 12.2081 97.7485 12.5521 97.6525 12.9841H94.5085C94.6525 12.2961 94.9565 11.6881 95.4205 11.1601C95.9005 10.6321 96.5325 10.2161 97.3165 9.91205C98.1005 9.60805 99.0205 9.45605 100.077 9.45605C101.197 9.45605 102.125 9.60805 102.861 9.91205C103.597 10.2001 104.141 10.6321 104.493 11.2081C104.861 11.7841 105.045 12.4801 105.045 13.2961V19.1281C105.045 19.6081 105.085 20.1121 105.165 20.6401C105.245 21.1521 105.341 21.6321 105.453 22.0801H102.597C102.469 21.5041 102.381 20.9681 102.333 20.4721C101.997 21.0161 101.485 21.4801 100.797 21.8641C100.125 22.2321 99.3085 22.4161 98.3485 22.4161ZM99.1405 20.2081C99.7487 20.2081 100.285 20.0721 100.749 19.8001C101.213 19.5281 101.573 19.1521 101.829 18.6721C102.085 18.1761 102.213 17.6321 102.213 17.0401V15.7201C102.005 15.9921 101.717 16.2081 101.349 16.3681C100.997 16.5121 100.461 16.6401 99.7407 16.7521C98.7805 16.9121 98.0845 17.1121 97.6525 17.3521C97.2205 17.5921 97.0045 18.0081 97.0045 18.6001C97.0045 19.1121 97.2045 19.5121 97.6045 19.8001C98.0045 20.0721 98.5165 20.2081 99.1405 20.2081Z" fill="#131313"/>
<path d="M86.8616 22.44C85.6936 22.44 84.6456 22.176 83.7176 21.648C82.7896 21.12 82.0616 20.376 81.5336 19.416C81.0216 18.44 80.7656 17.288 80.7656 15.96C80.7656 14.68 81.0296 13.552 81.5576 12.576C82.0856 11.584 82.8136 10.824 83.7416 10.296C84.6856 9.75198 85.7496 9.47998 86.9336 9.47998C87.9576 9.47998 88.8616 9.67198 89.6456 10.056C90.4456 10.424 91.0776 10.928 91.5416 11.568C92.0216 12.208 92.3256 12.92 92.4536 13.704H89.5976C89.4056 13.128 89.0856 12.672 88.6376 12.336C88.2056 12 87.6536 11.832 86.9816 11.832C86.3576 11.832 85.8056 11.992 85.3256 12.312C84.8456 12.632 84.4616 13.104 84.1736 13.728C83.9016 14.352 83.7656 15.096 83.7656 15.96C83.7656 16.84 83.9016 17.592 84.1736 18.216C84.4616 18.8239 84.8376 19.288 85.3016 19.608C85.7816 19.912 86.3256 20.064 86.9336 20.064C87.6376 20.064 88.2056 19.896 88.6376 19.56C89.0856 19.224 89.4136 18.776 89.6216 18.216H92.4536C92.3416 18.9839 92.0456 19.696 91.5656 20.352C91.0856 20.992 90.4376 21.504 89.6216 21.888C88.8216 22.256 87.9016 22.44 86.8616 22.44Z" fill="#131313"/>
<path d="M73.1111 22.4401C71.8151 22.4401 70.6871 22.1761 69.7271 21.6481C68.7671 21.1041 68.023 20.3441 67.495 19.3681C66.983 18.3921 66.7271 17.2561 66.7271 15.9601C66.7271 14.7121 67.0071 13.5921 67.5671 12.6001C68.1271 11.6081 68.8791 10.8401 69.8231 10.2961C70.7671 9.73605 71.7911 9.45605 72.8951 9.45605C74.1271 9.45605 75.1991 9.74405 76.1111 10.3201C77.0391 10.8961 77.759 11.7361 78.271 12.8401C78.783 13.9281 79.047 15.2401 79.063 16.7761H68.383V14.6641H77.287L76.2791 15.5761C76.2631 14.4241 75.9671 13.4961 75.3911 12.7921C74.8151 12.0881 74.0151 11.7361 72.9911 11.7361C72.3671 11.7361 71.799 11.8961 71.287 12.2161C70.791 12.5201 70.3911 12.9521 70.0871 13.5121C69.7991 14.0561 69.6551 14.6561 69.6551 15.3121V16.4401C69.6551 17.1601 69.8071 17.8081 70.1111 18.3841C70.4151 18.9441 70.8231 19.3841 71.3351 19.7041C71.8631 20.0241 72.471 20.1841 73.159 20.1841C73.799 20.1841 74.327 20.0641 74.743 19.8241C75.175 19.5841 75.495 19.2641 75.703 18.8641H78.7271C78.4071 19.9521 77.751 20.8241 76.759 21.4801C75.783 22.1201 74.5671 22.4401 73.1111 22.4401Z" fill="#131313"/>
<path d="M50.5586 5.28027H56.0786C57.7586 5.28027 59.2706 5.63227 60.6146 6.33627C61.9586 7.04027 63.0066 8.03227 63.7586 9.31227C64.5266 10.5763 64.9106 12.0323 64.9106 13.6803C64.9106 15.3283 64.5266 16.7923 63.7586 18.0723C63.0066 19.3363 61.9586 20.3203 60.6146 21.0243C59.2706 21.7283 57.7586 22.0803 56.0786 22.0803H50.5586V5.28027ZM55.8386 19.5123C57.1026 19.5123 58.1826 19.2883 59.0786 18.8403C59.9906 18.3763 60.6786 17.7123 61.1426 16.8483C61.6226 15.9683 61.8626 14.9123 61.8626 13.6803C61.8626 12.4483 61.6226 11.4003 61.1426 10.5363C60.6786 9.65627 59.9906 8.99227 59.0786 8.54427C58.1826 8.08027 57.1026 7.84827 55.8386 7.84827H53.5826V19.5123H55.8386Z" fill="#131313"/>
</svg>
