<svg alt="D. E. Shaw &amp; Co" xmlns="http://www.w3.org/2000/svg" viewBox="0 0 191.17 41.75"><path d="M43.24 18.65v5.9h-1c-1-4.22-1.7-4.78-5.17-4.78h-3.82v9c4.8-.07 5.53-.83 5.66-3.53H40v8.14h-1.1c-.12-2.65-.9-3.42-5.65-3.45v10.33h.63c7.4 0 8.25-1.72 8.8-5.7h1.1l-.56 6.82H26.9v-1.12h2.9V19.73h-2.9v-1.08h16.34M153.35 10.67h36.74v1.13h-36.75zM149.56 0L124 10.73H0v1.1h124.23L150 1.05l-.44-1M14.12 40.73a20.3 20.3 0 0 1-6.12.65H0v-1.12h2.9V19.73H0v-1.08h8a20.42 20.42 0 0 1 6.1.63c4.5 1.34 6.8 5 6.8 10.74s-2.3 9.4-6.8 10.74m-.8-20.2a13.72 13.72 0 0 0-5.3-.83H6.36v20.53H8a13.77 13.77 0 0 0 5.3-.78c2.65-1.23 3.77-4 3.77-9.47S16 21.8 13.32 20.56zM118.65 41.4l3.57-15.28h2.23V25h-6.2v1.12H121l-2.8 11.85-.66-2.7-2.55-8.72h-2.32L109.4 38l-.55-2.75-2.17-9.13h2.47V25h-7.6v1.12h2.16l3.67 15.27h2.32L113 29.66l.75 3 2.57 8.72h2.3M183.57 24.73c5.15 0 7.6 2.63 7.6 8.5s-2.45 8.5-7.6 8.5S176 39 176 33.18s2.42-8.5 7.57-8.5m0 1.1c-1.86 0-4.17.88-4.17 7.4s2.32 7.4 4.17 7.4 4.2-.9 4.2-7.4-2.33-7.45-4.2-7.45zM173.38 19.32a17.52 17.52 0 0 0-6.4-1c-7.6 0-11.43 4.08-11.43 11.7 0 7.44 3.8 11.7 11.43 11.7a16 16 0 0 0 6.37-1.24l.5-5.87h-1.1c-.73 3.77-2.73 5.92-6 5.92a6.1 6.1 0 0 1-4.46-1.5c-1.72-1.65-2.64-4.6-2.64-9s.94-7.57 2.83-9.2a5.73 5.73 0 0 1 3.9-1.33c3.5 0 5.4 2.18 6 5h1V19.3M64.88 19.4a15.07 15.07 0 0 0-5.72-1c-4.77 0-7.5 2.3-7.5 5.93 0 3.25 1.76 4.9 4.78 6.16l3.1 1.3s3.2 2.5 3.2 4.6c0 2.7-1.52 4.2-4.4 4.2s-5.2-2.13-6.07-6h-1l.5 5.93a14.14 14.14 0 0 0 6 1.2c4.87 0 8.12-2.5 8.12-6.8 0-3.65-2-5.1-5-6.34l-3-1.24c-2.1-.85-3-1.92-3-4.22s1.7-3.6 3.87-3.6c2.82 0 4.42 1.73 5.06 5.06h1.07v-5.2M83 29.3c0-3.3-2.1-4.7-4.5-4.7a6.07 6.07 0 0 0-5.43 3v-9H67.7v1.13h2.23v20.54H67.7v1.12h7.73v-1.13H73.1v-9a6 6 0 0 1 .77-3.08 4.08 4.08 0 0 1 3.46-2.07c1.63 0 2.53 1.14 2.53 3.2v11h-2.33v1.1h7.7v-1.16H83v-11M99.6 36.34v-7.2c0-3.3-2.38-4.48-6.06-4.48s-6.2 1.3-6.2 3.65A1.7 1.7 0 0 0 89 30h.2a1.82 1.82 0 0 0 1.55-.6v-.76c0-1.88.92-2.93 2.75-2.93a2.6 2.6 0 0 1 2.92 2.84V31L91 32.73c-1.5.54-4 1.43-4 4.35 0 3.26 2.26 4.67 5.22 4.67 2.4 0 4-.84 4.82-2.65.45 2 2.4 2.8 4.64 2.35v-1c-1.12-.35-2-1.72-2-4.1m-3.15 0c0 2.66-1.08 3.9-3.1 3.9-1.8 0-2.8-1.2-2.8-3.2 0-2.83 1.47-3.34 3.4-4l2.5-.85zM145.93 38.5a10.65 10.65 0 0 0 2.9-7.86 13.9 13.9 0 0 0-.66-4h-5.37v1a4.66 4.66 0 0 1 3.4 1.18 4.56 4.56 0 0 1 1.17 3.4 8 8 0 0 1-2.2 5.5c-.23-.24-.63-.63-.86-.88a50.23 50.23 0 0 1-8.44-11.26 6.6 6.6 0 0 1-.8-2.93 3.06 3.06 0 0 1 3.27-3.28c2.12 0 3.77 1.25 4.48 5h1v-5a11.28 11.28 0 0 0-5.1-1c-3.8 0-6.47 1.8-6.47 5.44a8.78 8.78 0 0 0 .85 3.5 6.48 6.48 0 0 0-4.37 6.37c0 3.94 3 8.17 9 8.17a11.5 11.5 0 0 0 5.92-1.45 12.9 12.9 0 0 0 5.3 1.4l.32-.88a17.36 17.36 0 0 1-3.33-2.33m-6.5 1.85a7.68 7.68 0 0 1-5.5-2.17 8 8 0 0 1-2.22-5.7 5.9 5.9 0 0 1 1.7-4.63 43.1 43.1 0 0 0 8.05 10.67 12.8 12.8 0 0 0 1.24 1.1 7.1 7.1 0 0 1-3.25.7z" fill="#fff"></path></svg>