<svg width="135" height="25" viewBox="0 0 135 25" fill="none" xmlns="http://www.w3.org/2000/svg">
<g clip-path="url(#clip0_3324_10733)">
<path d="M113.528 19.9327V10.1736C113.528 8.1331 113.301 6.69108 112.338 5.4365C111.127 3.86107 109.656 3.27344 107.735 3.27344C105.031 3.27344 102.828 4.90655 101.393 6.82084C101.218 6.32736 100.965 5.86499 100.643 5.45092C99.4323 3.87549 97.9614 3.28785 96.0432 3.28785C93.6172 3.28785 91.5944 4.60733 90.1668 6.25846V3.64115H84.2656V4.21798H84.6262C85.4227 4.21798 85.9312 4.70106 85.9312 5.66001C85.9312 5.97726 85.9312 19.6515 85.9312 19.9399C85.9312 20.9024 85.4227 21.3819 84.6262 21.3819H84.2656V21.9803H91.8363V21.3747H91.4758C90.6793 21.3747 90.1708 20.8952 90.1708 19.9327C90.1708 19.738 90.1708 13.3281 90.1708 8.41795C91.1186 7.15615 92.7121 5.76098 94.403 5.76098C94.8974 5.73274 95.3913 5.82724 95.8402 6.03604C96.2896 6.2449 96.68 6.56159 96.977 6.95787C97.4326 7.65323 97.6469 8.47921 97.5862 9.30839V19.9327C97.5862 20.8916 97.0816 21.3747 96.2851 21.3747H95.9246V21.9587H103.495V21.3711H103.135C102.338 21.3711 101.83 20.8916 101.83 19.9291C101.83 19.6118 101.83 11.9329 101.83 10.17C101.834 9.62721 101.811 9.08457 101.761 8.54412C102.702 7.25346 104.342 5.76098 106.087 5.76098C106.582 5.73201 107.075 5.82578 107.524 6.03402C107.973 6.24226 108.364 6.55838 108.661 6.95427C109.12 7.64851 109.335 8.47504 109.274 9.30479V19.9327C109.274 20.8916 108.766 21.3747 107.969 21.3747H107.609V21.9587H115.18V21.3711H114.819C114.022 21.3711 113.514 20.8916 113.514 19.9291" fill="black"/>
<path d="M73.6465 4.23247H74.007C74.8035 4.23247 75.3121 4.71195 75.3121 5.6745C75.3121 5.99175 75.3121 19.5073 75.3121 19.7993C75.3121 20.7583 74.8069 21.3928 74.007 21.3928H73.6465V21.9876H81.2172V21.4108H80.8566C80.0595 21.4108 79.555 20.9314 79.555 19.9687C79.555 19.6479 79.555 6.0062 79.555 5.68895C79.555 4.72997 80.0595 4.24689 80.86 4.24689H81.2205V3.64844H73.6499L73.6465 4.23247Z" fill="black"/>
<path d="M134.112 17.2426C133.459 18.2678 132.551 19.1058 131.477 19.6746C130.402 20.2434 129.199 20.5233 127.983 20.4872C125.161 20.3934 122.684 18.0826 121.578 14.2359C120.207 9.48077 121.382 6.23256 124.462 4.81577C126.844 3.71621 129.595 4.87345 130.399 6.01988C129.318 6.54621 129.126 7.89092 129.372 8.7057C129.491 9.07307 129.697 9.40618 129.973 9.67663C130.249 9.94714 130.586 10.147 130.955 10.2592C131.325 10.3714 131.716 10.3927 132.096 10.3212C132.476 10.2497 132.832 10.0875 133.135 9.84848C133.954 9.21763 134.181 8.20457 133.954 7.19156C133.709 6.10999 132.807 5.24117 131.751 4.57783C130.238 3.6353 128.487 3.14497 126.704 3.16463C121.722 3.11776 117.104 7.30688 117.104 13.0462C117.104 18.9586 122.223 22.5385 126.624 22.5385C128.315 22.5685 129.984 22.1462 131.457 21.3153C132.929 20.4843 134.154 19.2749 135.003 17.8122C134.942 17.7689 134.202 17.3147 134.123 17.239" fill="black"/>
<path d="M12.2571 6.35599e-06C11.449 0.00214421 10.6596 0.243728 9.98874 0.694243C9.31791 1.14475 8.79557 1.78399 8.48783 2.53119C8.18003 3.2784 8.1006 4.10006 8.25956 4.89238C8.41858 5.68468 8.80879 6.41211 9.38096 6.98282C9.95314 7.55347 10.6816 7.94177 11.4743 8.09859C12.267 8.25547 13.0885 8.17391 13.8349 7.86414C14.5813 7.55443 15.2191 7.03041 15.6679 6.35833C16.1166 5.68631 16.3561 4.89631 16.3561 4.0882C16.3556 3.55056 16.2492 3.01827 16.0429 2.52178C15.8366 2.02528 15.5345 1.57431 15.1538 1.19464C14.7731 0.814967 14.3214 0.514042 13.8243 0.30906C13.3273 0.104078 12.7947 -0.000941248 12.2571 6.35599e-06ZM12.2571 5.78981C11.9195 5.79054 11.5893 5.69104 11.3084 5.50393C11.0274 5.31683 10.8083 5.05055 10.6788 4.73882C10.5493 4.42708 10.5152 4.08392 10.5809 3.75281C10.6465 3.42169 10.809 3.11753 11.0477 2.87883C11.2864 2.64013 11.5906 2.47766 11.9217 2.41197C12.2528 2.34629 12.596 2.38037 12.9077 2.50988C13.2195 2.63939 13.4857 2.85851 13.6728 3.13948C13.8599 3.42045 13.9594 3.75063 13.9587 4.0882C13.9587 4.31166 13.9147 4.53293 13.8292 4.73938C13.7437 4.94583 13.6183 5.13341 13.4603 5.29142C13.3023 5.44943 13.1147 5.57477 12.9083 5.66027C12.7018 5.74583 12.4806 5.78981 12.2571 5.78981Z" fill="black"/>
<path d="M28.6227 8.17188C27.8139 8.17261 27.0236 8.41319 26.3516 8.86313C25.6796 9.31308 25.1562 9.95225 24.8476 10.6998C24.5389 11.4473 24.4589 12.2695 24.6176 13.0625C24.7764 13.8555 25.1667 14.5836 25.7393 15.1547C26.3119 15.7258 27.041 16.1142 27.8344 16.2709C28.6279 16.4275 29.4499 16.3453 30.1966 16.0347C30.9433 15.724 31.581 15.1989 32.0292 14.5258C32.4774 13.8526 32.7159 13.0616 32.7145 12.2529C32.7126 11.1693 32.2805 10.1307 31.5133 9.36545C30.746 8.60022 29.7063 8.17092 28.6227 8.17188ZM28.6227 13.9617C28.2856 13.9617 27.956 13.8618 27.6757 13.6746C27.3953 13.4873 27.1768 13.2213 27.0476 12.9099C26.9184 12.5985 26.8844 12.2558 26.95 11.9252C27.0154 11.5945 27.1775 11.2906 27.4156 11.052C27.6537 10.8134 27.9572 10.6507 28.2878 10.5845C28.6183 10.5183 28.9611 10.5515 29.2727 10.68C29.5844 10.8085 29.851 11.0266 30.0388 11.3065C30.2265 11.5864 30.3272 11.9158 30.3279 12.2529C30.3279 12.4766 30.2837 12.6982 30.198 12.9049C30.1123 13.1116 29.9866 13.2993 29.8282 13.4574C29.6698 13.6154 29.4818 13.7407 29.275 13.826C29.0681 13.9113 28.8464 13.9549 28.6227 13.9545" fill="black"/>
<path d="M28.6227 1.5897e-06C27.8143 0.000714476 27.0242 0.241088 26.3524 0.69074C25.6805 1.14039 25.1571 1.77913 24.8482 2.52621C24.5394 3.27329 24.4589 4.09518 24.6171 4.88797C24.7752 5.68079 25.1649 6.40889 25.7368 6.98028C26.3087 7.55166 27.0371 7.94063 27.8301 8.09808C28.623 8.25558 29.4448 8.17435 30.1916 7.86487C30.9384 7.55532 31.5767 7.0313 32.0257 6.35911C32.4748 5.68686 32.7145 4.89661 32.7145 4.08819C32.7145 3.55102 32.6086 3.01912 32.4029 2.52288C32.1973 2.02664 31.8958 1.5758 31.5158 1.19613C31.1358 0.816458 30.6847 0.515401 30.1883 0.310162C29.6918 0.104922 29.1599 -0.000472107 28.6227 1.5897e-06ZM28.6227 5.7898C28.2852 5.7898 27.9554 5.68973 27.6749 5.50217C27.3944 5.31464 27.1759 5.04811 27.0469 4.73631C26.918 4.42451 26.8844 4.08147 26.9505 3.75059C27.0166 3.41971 27.1794 3.11588 27.4182 2.87754C27.657 2.63921 27.9612 2.47709 28.2922 2.4117C28.6232 2.34631 28.9662 2.3806 29.2777 2.51021C29.5893 2.63983 29.8553 2.85895 30.0423 3.13985C30.2292 3.42074 30.3286 3.75078 30.3279 4.08819C30.3279 4.31196 30.2837 4.53353 30.198 4.74021C30.1123 4.94689 29.9866 5.13464 29.8282 5.29269C29.6698 5.45075 29.4818 5.57601 29.275 5.66133C29.0681 5.7466 28.8464 5.79031 28.6227 5.7898Z" fill="black"/>
<path d="M20.4466 8.17188C19.6377 8.17188 18.847 8.41184 18.1746 8.86139C17.5021 9.31094 16.9782 9.94982 16.6689 10.6973C16.3597 11.4447 16.2791 12.2671 16.4375 13.0603C16.5958 13.8535 16.9859 14.582 17.5584 15.1534C18.1308 15.7249 18.86 16.1136 19.6535 16.2706C20.447 16.4275 21.2692 16.3456 22.0161 16.035C22.763 15.7244 23.401 15.1994 23.8493 14.5261C24.2977 13.8528 24.5363 13.0617 24.5348 12.2529C24.5329 11.1699 24.1013 10.1318 23.3349 9.36674C22.5683 8.60162 21.5296 8.17188 20.4466 8.17188ZM20.4466 13.9617C20.1095 13.9617 19.78 13.8618 19.4996 13.6746C19.2193 13.4873 19.0007 13.2213 18.8715 12.9099C18.7424 12.5985 18.7084 12.2558 18.7739 11.9252C18.8394 11.5945 19.0015 11.2906 19.2396 11.052C19.4777 10.8134 19.7812 10.6506 20.1117 10.5845C20.4423 10.5183 20.785 10.5515 21.0967 10.68C21.4083 10.8085 21.6749 11.0266 21.8627 11.3065C22.0505 11.5864 22.1511 11.9158 22.1518 12.2529C22.1509 12.7045 21.9708 13.1373 21.6511 13.4563C21.3314 13.7753 20.8982 13.9545 20.4466 13.9545" fill="black"/>
<path d="M20.4466 0C19.638 0 18.8476 0.239768 18.1753 0.688985C17.503 1.1382 16.979 1.77669 16.6696 2.52371C16.3602 3.27073 16.2792 4.09273 16.437 4.88576C16.5947 5.67882 16.9841 6.40726 17.5558 6.97898C18.1276 7.55071 18.856 7.94007 19.649 8.09785C20.4421 8.25558 21.2641 8.17463 22.0111 7.8652C22.7581 7.55577 23.3966 7.03175 23.8458 6.35945C24.295 5.68715 24.5348 4.89676 24.5348 4.08819C24.5348 3.00394 24.1041 1.96409 23.3374 1.19741C22.5707 0.430719 21.5309 0 20.4466 0ZM20.4466 5.7898C20.1092 5.7898 19.7793 5.68968 19.4988 5.50217C19.2184 5.31464 18.9998 5.04811 18.8709 4.73631C18.7419 4.42451 18.7083 4.08147 18.7744 3.75059C18.8405 3.41971 19.0033 3.11588 19.2421 2.87754C19.4809 2.63921 19.7851 2.47709 20.1161 2.4117C20.4471 2.34631 20.7901 2.3806 21.1017 2.51021C21.4132 2.63983 21.6792 2.85895 21.8662 3.13985C22.0531 3.42074 22.1525 3.75078 22.1518 4.08819C22.1518 4.31196 22.1077 4.53352 22.0219 4.74021C21.9362 4.94689 21.8105 5.13464 21.6521 5.29269C21.4937 5.45075 21.3057 5.57601 21.0989 5.66133C20.892 5.7466 20.6703 5.79025 20.4466 5.7898Z" fill="black"/>
<path d="M20.4466 16.3477C19.638 16.3477 18.8476 16.5875 18.1753 17.0367C17.503 17.4859 16.979 18.1244 16.6696 18.8714C16.3602 19.6184 16.2792 20.4404 16.437 21.2334C16.5947 22.0264 16.9841 22.7549 17.5558 23.3267C18.1276 23.8984 18.856 24.2877 19.649 24.4455C20.4421 24.6032 21.2641 24.5223 22.0111 24.2129C22.7581 23.9034 23.3966 23.3794 23.8458 22.7071C24.295 22.0348 24.5348 21.2444 24.5348 20.4359C24.5348 19.3516 24.1041 18.3117 23.3374 17.5451C22.5707 16.7784 21.5309 16.3477 20.4466 16.3477ZM20.4466 22.1411C20.1093 22.1411 19.7796 22.0411 19.4992 21.8537C19.2188 21.6663 19.0002 21.4 18.8712 21.0884C18.7421 20.7768 18.7083 20.434 18.7742 20.1032C18.8399 19.7724 19.0024 19.4686 19.2408 19.2301C19.4793 18.9916 19.7832 18.8292 20.1139 18.7634C20.4447 18.6976 20.7876 18.7314 21.0991 18.8605C21.4108 18.9895 21.6771 19.2081 21.8644 19.4885C22.0518 19.7689 22.1518 20.0986 22.1518 20.4359C22.1518 20.8881 21.9721 21.3218 21.6524 21.6416C21.3326 21.9614 20.8988 22.1411 20.4466 22.1411Z" fill="black"/>
<path d="M12.2571 16.3477C11.449 16.3498 10.6596 16.5914 9.98874 17.0419C9.31791 17.4924 8.79557 18.1316 8.48783 18.8789C8.18003 19.6261 8.1006 20.4477 8.25956 21.2401C8.41858 22.0323 8.80879 22.7598 9.38096 23.3304C9.95314 23.9011 10.6816 24.2894 11.4743 24.4463C12.267 24.6031 13.0885 24.5216 13.8349 24.2118C14.5813 23.9021 15.2191 23.3781 15.6679 22.706C16.1166 22.0339 16.3561 21.2439 16.3561 20.4359C16.3556 19.8982 16.2492 19.3659 16.0429 18.8694C15.8366 18.3729 15.5345 17.922 15.1538 17.5423C14.7731 17.1626 14.3214 16.8617 13.8243 16.6567C13.3273 16.4517 12.7947 16.3467 12.2571 16.3477ZM12.2571 22.1411C11.9197 22.1418 11.5896 22.0424 11.3088 21.8554C11.0279 21.6685 10.8087 21.4025 10.6791 21.0909C10.5495 20.7794 10.5152 20.4364 10.5806 20.1054C10.646 19.7744 10.8081 19.4702 11.0465 19.2314C11.2848 18.9925 11.5886 18.8298 11.9195 18.7637C12.2504 18.6976 12.5934 18.7311 12.9052 18.8601C13.217 18.9891 13.4836 19.2076 13.6711 19.4881C13.8586 19.7686 13.9587 20.0985 13.9587 20.4359C13.9587 20.8875 13.7795 21.3207 13.4606 21.6403C13.1415 21.9601 12.7087 22.1401 12.2571 22.1411Z" fill="black"/>
<path d="M36.8001 8.17908C35.9912 8.17908 35.2005 8.41904 34.5281 8.86859C33.8556 9.31808 33.3316 9.95703 33.0224 10.7045C32.7132 11.4519 32.6327 12.2742 32.791 13.0675C32.9493 13.8607 33.3394 14.5892 33.9119 15.1606C34.4844 15.732 35.2135 16.1208 36.007 16.2778C36.8005 16.4347 37.6227 16.3527 38.3696 16.0422C39.1165 15.7317 39.7545 15.2066 40.2028 14.5333C40.6512 13.86 40.8897 13.0689 40.8883 12.2601C40.8888 11.7231 40.7833 11.1913 40.5781 10.695C40.3728 10.1988 40.0717 9.74795 39.6919 9.3682C39.3122 8.98851 38.8613 8.68741 38.3652 8.4821C37.8689 8.27684 37.3371 8.17143 36.8001 8.17188M36.8001 13.9617C36.4626 13.9624 36.1324 13.8629 35.8514 13.6758C35.5704 13.4887 35.3513 13.2224 35.2218 12.9107C35.0922 12.599 35.0582 12.2558 35.1239 11.9247C35.1896 11.5936 35.352 11.2894 35.5907 11.0507C35.8294 10.812 36.1336 10.6495 36.4647 10.5838C36.7958 10.5182 37.139 10.5522 37.4507 10.6818C37.7624 10.8112 38.0287 11.0304 38.2159 11.3114C38.403 11.5923 38.5024 11.9225 38.5017 12.2601C38.5008 12.7111 38.3212 13.1433 38.0023 13.4622C37.6833 13.7811 37.2511 13.9607 36.8001 13.9617Z" fill="black"/>
<path d="M44.9788 8.17908C44.1699 8.17908 43.3793 8.41904 42.7068 8.86859C42.0343 9.31814 41.5104 9.95703 41.2012 10.7045C40.8919 11.4519 40.8114 12.2743 40.9697 13.0675C41.128 13.8607 41.5181 14.5892 42.0906 15.1606C42.663 15.7321 43.3922 16.1208 44.1857 16.2778C44.9792 16.4347 45.8014 16.3528 46.5483 16.0422C47.2952 15.7317 47.9332 15.2066 48.3815 14.5333C48.8299 13.86 49.0685 13.0689 49.067 12.2601C49.067 11.1758 48.6363 10.136 47.8696 9.36927C47.1029 8.60258 46.0631 8.17188 44.9788 8.17188M44.9788 13.9617C44.6414 13.9617 44.3116 13.8616 44.0311 13.674C43.7506 13.4865 43.532 13.22 43.4031 12.9082C43.2741 12.5964 43.2406 12.2533 43.3067 11.9225C43.3727 11.5916 43.5355 11.2877 43.7743 11.0494C44.0132 10.8111 44.3174 10.649 44.6484 10.5836C44.9794 10.5182 45.3224 10.5525 45.6339 10.6821C45.9454 10.8117 46.2115 11.0308 46.3984 11.3118C46.5854 11.5926 46.6847 11.9227 46.684 12.2601C46.684 12.4838 46.6399 12.7054 46.5542 12.9121C46.4684 13.1188 46.3427 13.3065 46.1843 13.4646C46.026 13.6226 45.838 13.7479 45.6311 13.8332C45.4242 13.9185 45.2026 13.9621 44.9788 13.9617Z" fill="black"/>
<path d="M53.1585 8.17908C52.3496 8.17908 51.559 8.41904 50.8865 8.86859C50.214 9.31814 49.6901 9.95703 49.3808 10.7045C49.0716 11.4519 48.9911 12.2743 49.1494 13.0675C49.3077 13.8607 49.6978 14.5892 50.2703 15.1606C50.8427 15.7321 51.5718 16.1209 52.3654 16.2778C53.1589 16.4347 53.9811 16.3528 54.728 16.0422C55.4749 15.7317 56.1129 15.2066 56.5613 14.5333C57.0096 13.86 57.2481 13.0689 57.247 12.2601C57.247 11.1758 56.8161 10.136 56.0493 9.36927C55.2826 8.60258 54.2428 8.17188 53.1585 8.17188M53.1585 13.9617C52.8209 13.9624 52.4907 13.8629 52.2098 13.6758C51.9288 13.4887 51.7097 13.2225 51.5802 12.9107C51.4507 12.599 51.4166 12.2558 51.4823 11.9247C51.548 11.5936 51.7104 11.2894 51.9491 11.0507C52.1878 10.812 52.492 10.6495 52.8231 10.5838C53.1542 10.5182 53.4974 10.5523 53.8091 10.6818C54.1209 10.8112 54.3872 11.0304 54.5742 11.3114C54.7613 11.5923 54.8608 11.9225 54.8601 12.2601C54.8592 12.7111 54.6796 13.1434 54.3607 13.4622C54.0418 13.7811 53.6095 13.9607 53.1585 13.9617Z" fill="black"/>
<path d="M4.0882 0C3.27963 0 2.48922 0.239768 1.81692 0.688985C1.14462 1.1382 0.620621 1.77669 0.311197 2.52371C0.00177131 3.27073 -0.0791884 4.09273 0.0785552 4.88576C0.236299 5.67882 0.625661 6.40726 1.19741 6.97898C1.76915 7.55071 2.4976 7.94007 3.29063 8.09785C4.08366 8.25558 4.90566 8.17463 5.65267 7.8652C6.39967 7.55577 7.03817 7.03175 7.48738 6.35945C7.93665 5.68715 8.17639 4.89676 8.17639 4.08819C8.17639 3.00394 7.74568 1.96409 6.97899 1.19741C6.2123 0.430719 5.17245 0 4.0882 0ZM4.0882 5.7898C3.75078 5.7898 3.42095 5.68968 3.14045 5.50217C2.85996 5.31464 2.6414 5.04811 2.51244 4.73631C2.38348 4.42451 2.34993 4.08147 2.41601 3.75059C2.4821 3.41971 2.64487 3.11588 2.8837 2.87754C3.12255 2.63921 3.42673 2.47709 3.75774 2.4117C4.08875 2.34631 4.43173 2.3806 4.74326 2.51021C5.05478 2.63983 5.32085 2.85895 5.50778 3.13985C5.69475 3.42074 5.79414 3.75078 5.79341 4.08819C5.79341 4.31196 5.74925 4.53352 5.66353 4.74021C5.5778 4.94689 5.45214 5.13464 5.29375 5.29269C5.13536 5.45075 4.94735 5.57601 4.74048 5.66133C4.53362 5.7466 4.31196 5.79025 4.0882 5.7898Z" fill="black"/>
<path d="M28.6227 16.3477C27.8143 16.3484 27.0242 16.5887 26.3524 17.0384C25.6805 17.4881 25.1571 18.1268 24.8482 18.8738C24.5394 19.621 24.4589 20.4428 24.6171 21.2356C24.7752 22.0284 25.1649 22.7566 25.7368 23.3279C26.3087 23.8993 27.0371 24.2883 27.8301 24.4457C28.623 24.6032 29.4448 24.522 30.1916 24.2125C30.9384 23.903 31.5767 23.379 32.0257 22.7068C32.4748 22.0345 32.7145 21.2443 32.7145 20.4359C32.7145 19.8987 32.6086 19.3668 32.4029 18.8705C32.1973 18.3743 31.8958 17.9234 31.5158 17.5438C31.1358 17.1641 30.6847 16.8631 30.1883 16.6578C29.6918 16.4526 29.1599 16.3472 28.6227 16.3477ZM28.6227 22.1411C28.2854 22.1411 27.9557 22.0411 27.6753 21.8537C27.3949 21.6663 27.1763 21.4 27.0473 21.0884C26.9182 20.7768 26.8844 20.4339 26.9502 20.1032C27.016 19.7724 27.1784 19.4686 27.4169 19.2301C27.6554 18.9916 27.9592 18.8292 28.29 18.7634C28.6208 18.6976 28.9637 18.7314 29.2752 18.8605C29.5868 18.9895 29.8531 19.2081 30.0405 19.4885C30.2279 19.7689 30.3279 20.0986 30.3279 20.4359C30.3283 20.6599 30.2846 20.8819 30.199 21.089C30.1135 21.2961 29.9879 21.4842 29.8295 21.6427C29.6711 21.8012 29.4829 21.9267 29.2758 22.0123C29.0687 22.0978 28.8467 22.1415 28.6227 22.1411Z" fill="black"/>
<path d="M36.8001 0C35.9915 0 35.2012 0.239768 34.5289 0.688985C33.8566 1.1382 33.3325 1.77669 33.0231 2.52371C32.7137 3.27073 32.6327 4.09273 32.7905 4.88576C32.9482 5.67882 33.3376 6.40726 33.9093 6.97898C34.4811 7.55071 35.2095 7.94007 36.0026 8.09785C36.7956 8.25558 37.6176 8.17463 38.3646 7.8652C39.1116 7.55577 39.7501 7.03175 40.1993 6.35945C40.6485 5.68715 40.8883 4.89676 40.8883 4.08819C40.8883 3.55133 40.7826 3.01971 40.5771 2.52371C40.3717 2.02771 40.0706 1.57703 39.6909 1.19741C39.3113 0.81778 38.8606 0.516646 38.3646 0.311195C37.8686 0.105744 37.337 0 36.8001 0ZM36.8001 5.7898C36.4626 5.79053 36.1324 5.69103 35.8514 5.50393C35.5704 5.31683 35.3513 5.05055 35.2218 4.73882C35.0923 4.42708 35.0582 4.08392 35.1239 3.7528C35.1896 3.42169 35.3521 3.11752 35.5908 2.87882C35.8295 2.64013 36.1336 2.47764 36.4648 2.41197C36.7959 2.34628 37.139 2.38036 37.4508 2.50987C37.7625 2.63938 38.0287 2.8585 38.2159 3.13947C38.403 3.42045 38.5025 3.75063 38.5017 4.08819C38.5017 4.53949 38.3225 4.9723 38.0034 5.29142C37.6842 5.61053 37.2514 5.7898 36.8001 5.7898Z" fill="black"/>
<path d="M44.9788 0C44.1703 0 43.3798 0.239768 42.7075 0.688985C42.0352 1.1382 41.5113 1.77669 41.2018 2.52371C40.8924 3.27073 40.8114 4.09273 40.9692 4.88576C41.1269 5.67882 41.5163 6.40726 42.0881 6.97898C42.6598 7.55071 43.3882 7.94007 44.1812 8.09785C44.9743 8.25558 45.7963 8.17463 46.5433 7.8652C47.2903 7.55577 47.9288 7.03175 48.3781 6.35945C48.8273 5.68715 49.067 4.89676 49.067 4.08819C49.067 3.00394 48.6363 1.96409 47.8696 1.19741C47.1029 0.430719 46.0631 0 44.9788 0ZM44.9788 5.7898C44.6414 5.7898 44.3116 5.68968 44.0311 5.50217C43.7506 5.31464 43.532 5.04811 43.4031 4.73631C43.2741 4.42451 43.2406 4.08147 43.3067 3.75059C43.3728 3.41971 43.5355 3.11588 43.7743 2.87754C44.0132 2.63921 44.3174 2.47709 44.6484 2.4117C44.9794 2.34631 45.3224 2.3806 45.6339 2.51021C45.9454 2.63983 46.2115 2.85895 46.3984 3.13985C46.5854 3.42074 46.6848 3.75078 46.684 4.08819C46.684 4.31196 46.6399 4.53352 46.5541 4.74021C46.4684 4.94689 46.3428 5.13464 46.1844 5.29269C46.026 5.45075 45.838 5.57601 45.6311 5.66133C45.4243 5.7466 45.2026 5.79025 44.9788 5.7898Z" fill="black"/>
<path d="M61.332 0C60.5237 0 59.7334 0.239768 59.0606 0.688985C58.3885 1.1382 57.8648 1.77669 57.5554 2.52371C57.246 3.27073 57.165 4.09273 57.3225 4.88576C57.48 5.67882 57.8698 6.40726 58.4413 6.97898C59.0134 7.55071 59.7418 7.94007 60.5344 8.09785C61.3275 8.25558 62.1499 8.17463 62.8969 7.8652C63.6439 7.55577 64.2823 7.03175 64.7312 6.35945C65.1806 5.68715 65.4203 4.89676 65.4203 4.08819C65.4203 3.55133 65.3145 3.01971 65.1092 2.52371C64.9039 2.02771 64.6024 1.57703 64.2227 1.19741C63.8436 0.81778 63.3925 0.516646 62.8969 0.311195C62.4008 0.105744 61.8692 0 61.332 0ZM61.332 5.7898C60.9945 5.7898 60.6649 5.68968 60.3842 5.50217C60.1041 5.31464 59.8853 5.04811 59.7565 4.73631C59.6276 4.42451 59.5939 4.08147 59.6597 3.75059C59.7261 3.41971 59.8886 3.11588 60.1277 2.87754C60.3668 2.63921 60.6705 2.47709 61.0018 2.4117C61.3326 2.34631 61.6757 2.3806 61.9873 2.51021C62.299 2.63983 62.565 2.85895 62.7518 3.13985C62.9385 3.42074 63.0381 3.75078 63.0375 4.08819C63.0375 4.31196 62.9931 4.53352 62.9076 4.74021C62.8215 4.94689 62.6961 5.13464 62.5375 5.29269C62.3794 5.45075 62.1915 5.57601 61.9845 5.66133C61.7775 5.7466 61.5559 5.79025 61.332 5.7898Z" fill="black"/>
<path d="M61.332 16.3477C60.5237 16.3477 59.7334 16.5875 59.0606 17.0367C58.3885 17.4859 57.8648 18.1244 57.5554 18.8714C57.246 19.6184 57.165 20.4404 57.3225 21.2334C57.48 22.0264 57.8698 22.7549 58.4413 23.3267C59.0134 23.8984 59.7418 24.2877 60.5344 24.4455C61.3275 24.6032 62.1499 24.5223 62.8969 24.2129C63.6439 23.9034 64.2823 23.3794 64.7312 22.7071C65.1806 22.0348 65.4203 21.2444 65.4203 20.4359C65.4203 19.899 65.3145 19.3674 65.1092 18.8714C64.9039 18.3754 64.6024 17.9247 64.2227 17.5451C63.8436 17.1654 63.3925 16.8643 62.8969 16.6588C62.4008 16.4534 61.8692 16.3477 61.332 16.3477ZM61.332 22.1411C60.9951 22.1411 60.6655 22.0411 60.3848 21.8537C60.1046 21.6663 59.8858 21.4 59.757 21.0884C59.6276 20.7768 59.5939 20.4339 59.6597 20.1032C59.7255 19.7724 59.8881 19.4686 60.1266 19.2301C60.3651 18.9916 60.6688 18.8292 60.9996 18.7634C61.3303 18.6976 61.6729 18.7314 61.9845 18.8605C62.2961 18.9895 62.5628 19.2081 62.7501 19.4885C62.9374 19.7689 63.0375 20.0986 63.0375 20.4359C63.0375 20.8881 62.8575 21.3218 62.538 21.6416C62.218 21.9614 61.7843 22.1411 61.332 22.1411Z" fill="black"/>
<path d="M53.1585 0C52.3499 0 51.5595 0.239768 50.8872 0.688985C50.2149 1.1382 49.6909 1.77669 49.3815 2.52371C49.0721 3.27073 48.9911 4.09273 49.1489 4.88576C49.3066 5.67882 49.6959 6.40726 50.2677 6.97898C50.8395 7.55071 51.5679 7.94007 52.361 8.09785C53.154 8.25558 53.976 8.17463 54.723 7.8652C55.47 7.55577 56.1085 7.03175 56.5579 6.35945C57.0068 5.68715 57.2469 4.89676 57.2469 4.08819C57.2458 3.00423 56.8149 1.96494 56.0483 1.19846C55.2817 0.43198 54.2425 0.000954613 53.1585 0ZM53.1585 5.7898C52.8209 5.79053 52.4907 5.69103 52.2098 5.50393C51.9288 5.31683 51.7097 5.05055 51.5802 4.73882C51.4507 4.42708 51.4166 4.08392 51.4823 3.7528C51.548 3.42169 51.7104 3.11752 51.9491 2.87882C52.1878 2.64013 52.492 2.47764 52.8231 2.41197C53.1543 2.34628 53.4974 2.38036 53.8091 2.50987C54.1209 2.63938 54.3871 2.8585 54.5742 3.13947C54.7613 3.42045 54.8608 3.75063 54.8601 4.08819C54.8601 4.53949 54.6808 4.9723 54.3617 5.29142C54.0426 5.61053 53.6098 5.7898 53.1585 5.7898Z" fill="black"/>
<path d="M53.1585 16.3477C52.3499 16.3477 51.5595 16.5875 50.8872 17.0367C50.2149 17.4859 49.6909 18.1244 49.3815 18.8714C49.0721 19.6184 48.9911 20.4404 49.1489 21.2334C49.3066 22.0264 49.6959 22.7549 50.2677 23.3267C50.8395 23.8984 51.5679 24.2877 52.361 24.4455C53.154 24.6032 53.976 24.5223 54.723 24.2129C55.47 23.9034 56.1085 23.3794 56.5579 22.7071C57.0068 22.0348 57.2469 21.2444 57.2469 20.4359C57.2458 19.3519 56.8149 18.3126 56.0483 17.5461C55.2817 16.7797 54.2425 16.3486 53.1585 16.3477ZM53.1585 22.1411C52.8211 22.1418 52.4911 22.0424 52.2101 21.8554C51.9292 21.6685 51.7101 21.4025 51.5805 21.0909C51.4509 20.7794 51.4166 20.4364 51.482 20.1054C51.5474 19.7744 51.7095 19.4702 51.9479 19.2314C52.1862 18.9925 52.49 18.8297 52.8209 18.7637C53.1518 18.6976 53.4948 18.7311 53.8066 18.8601C54.1184 18.989 54.3849 19.2076 54.5725 19.4881C54.76 19.7686 54.8601 20.0985 54.8601 20.4359C54.8601 20.8875 54.6809 21.3207 54.3619 21.6403C54.0429 21.9601 53.6101 22.1401 53.1585 22.1411Z" fill="black"/>
<path d="M44.9788 16.3477C44.1703 16.3477 43.3798 16.5875 42.7075 17.0367C42.0352 17.4859 41.5113 18.1244 41.2018 18.8714C40.8924 19.6184 40.8114 20.4404 40.9692 21.2334C41.1269 22.0264 41.5163 22.7549 42.0881 23.3267C42.6598 23.8984 43.3882 24.2877 44.1812 24.4455C44.9743 24.6032 45.7963 24.5223 46.5433 24.2129C47.2903 23.9034 47.9288 23.3794 48.3781 22.7071C48.8273 22.0348 49.067 21.2444 49.067 20.4359C49.067 19.3516 48.6363 18.3117 47.8696 17.5451C47.1029 16.7784 46.0631 16.3477 44.9788 16.3477ZM44.9788 22.1411C44.6416 22.1411 44.3119 22.0411 44.0314 21.8537C43.751 21.6663 43.5325 21.4 43.4034 21.0884C43.2744 20.7768 43.2406 20.434 43.3064 20.1032C43.3722 19.7724 43.5346 19.4686 43.773 19.2301C44.0115 18.9916 44.3154 18.8292 44.6461 18.7634C44.977 18.6976 45.3198 18.7314 45.6314 18.8605C45.943 18.9895 46.2093 19.2081 46.3966 19.4885C46.584 19.7689 46.684 20.0986 46.684 20.4359C46.6845 20.66 46.6407 20.8819 46.5552 21.089C46.4697 21.2961 46.3441 21.4842 46.1857 21.6427C46.0272 21.8012 45.839 21.9267 45.6319 22.0123C45.4249 22.0978 45.2029 22.1416 44.9788 22.1411Z" fill="black"/>
<path d="M36.8001 16.3477C35.9915 16.3477 35.2012 16.5875 34.5289 17.0367C33.8566 17.4859 33.3325 18.1244 33.0231 18.8714C32.7137 19.6184 32.6327 20.4404 32.7905 21.2334C32.9482 22.0264 33.3376 22.7549 33.9093 23.3267C34.4811 23.8984 35.2095 24.2877 36.0026 24.4455C36.7956 24.6032 37.6176 24.5223 38.3646 24.2129C39.1116 23.9034 39.7501 23.3794 40.1993 22.7071C40.6485 22.0348 40.8883 21.2444 40.8883 20.4359C40.8883 19.899 40.7826 19.3674 40.5771 18.8714C40.3717 18.3754 40.0706 17.9247 39.6909 17.5451C39.3113 17.1654 38.8606 16.8643 38.3646 16.6588C37.8686 16.4534 37.337 16.3477 36.8001 16.3477ZM36.8001 22.1411C36.4627 22.1418 36.1327 22.0424 35.8518 21.8554C35.5709 21.6685 35.3517 21.4025 35.2221 21.0909C35.0925 20.7794 35.0582 20.4364 35.1237 20.1054C35.189 19.7744 35.3511 19.4702 35.5895 19.2314C35.8278 18.9925 36.1317 18.8297 36.4625 18.7637C36.7934 18.6976 37.1364 18.7311 37.4482 18.8601C37.76 18.989 38.0265 19.2076 38.2141 19.4881C38.4016 19.7686 38.5017 20.0985 38.5017 20.4359C38.5017 20.8875 38.3226 21.3207 38.0036 21.6403C37.6845 21.9601 37.2518 22.1401 36.8001 22.1411Z" fill="black"/>
<path d="M4.08819 8.17188C3.27931 8.17188 2.48862 8.41184 1.81617 8.86139C1.14371 9.31094 0.619717 9.94982 0.310506 10.6973C0.00129303 11.4447 -0.0792447 12.2671 0.0790845 13.0603C0.237414 13.8535 0.627491 14.582 1.19996 15.1534C1.77243 15.7249 2.50154 16.1136 3.29505 16.2706C4.08856 16.4275 4.91078 16.3456 5.65767 16.035C6.40456 15.7244 7.04255 15.1994 7.49092 14.5261C7.93923 13.8528 8.17779 13.0617 8.17638 12.2529C8.17447 11.1699 7.74292 10.1318 6.97646 9.36674C6.20994 8.60162 5.1712 8.17188 4.08819 8.17188ZM4.08819 13.9617C3.75108 13.9617 3.42154 13.8618 3.1412 13.6746C2.86086 13.4873 2.64229 13.2213 2.51313 12.9099C2.38395 12.5985 2.34997 12.2558 2.41548 11.9252C2.48098 11.5945 2.64303 11.2906 2.88115 11.052C3.11927 10.8134 3.42277 10.6506 3.75331 10.5845C4.08386 10.5183 4.4266 10.5515 4.73825 10.68C5.0499 10.8085 5.31647 11.0266 5.50428 11.3065C5.6921 11.5864 5.79267 11.9158 5.79341 12.2529C5.79341 12.4766 5.74925 12.6982 5.66352 12.9049C5.57779 13.1116 5.45213 13.2993 5.29374 13.4573C5.13535 13.6154 4.94734 13.7407 4.74047 13.826C4.53361 13.9113 4.31195 13.9549 4.08819 13.9545" fill="black"/>
<path d="M12.257 8.17189C11.4486 8.17403 10.659 8.41579 9.98798 8.86663C9.31697 9.31748 8.79463 9.95715 8.48711 10.7048C8.17954 11.4524 8.10056 12.2744 8.26009 13.0669C8.41961 13.8594 8.81055 14.5869 9.38346 15.1572C9.95636 15.7276 10.6855 16.1153 11.4787 16.2714C12.2719 16.4274 13.0936 16.3448 13.8399 16.034C14.5861 15.7231 15.2234 15.198 15.6713 14.525C16.1192 13.852 16.3575 13.0613 16.356 12.2529C16.3551 11.7157 16.2483 11.184 16.0418 10.6881C15.8352 10.1922 15.533 9.74194 15.1523 9.36293C14.7716 8.98391 14.32 8.68365 13.8232 8.4793C13.3264 8.27494 12.7942 8.17048 12.257 8.17189ZM12.257 13.9617C11.9203 13.9603 11.5914 13.8592 11.312 13.6711C11.0327 13.483 10.8152 13.2164 10.6871 12.9049C10.5591 12.5934 10.5261 12.251 10.5924 11.9207C10.6588 11.5905 10.8214 11.2874 11.0598 11.0495C11.2981 10.8115 11.6017 10.6496 11.932 10.5839C12.2624 10.5184 12.6047 10.552 12.916 10.6808C13.2272 10.8095 13.4934 11.0275 13.6808 11.3073C13.8683 11.5871 13.9688 11.9161 13.9695 12.2529C13.97 12.4777 13.926 12.7005 13.84 12.9082C13.7541 13.116 13.6279 13.3047 13.4688 13.4636C13.3096 13.6223 13.1206 13.7481 12.9126 13.8336C12.7047 13.9191 12.4819 13.9627 12.257 13.9617Z" fill="black"/>
<path d="M4.08819 16.3477C3.27963 16.3477 2.48922 16.5875 1.81691 17.0367C1.14461 17.4859 0.620623 18.1244 0.311197 18.8714C0.00177145 19.6184 -0.0791887 20.4404 0.0785555 21.2334C0.2363 22.0264 0.625663 22.7549 1.19741 23.3267C1.76915 23.8984 2.4976 24.2877 3.29063 24.4455C4.08366 24.6032 4.90566 24.5223 5.65268 24.2129C6.39968 23.9034 7.03817 23.3794 7.48738 22.7071C7.93665 22.0348 8.17639 21.2444 8.17639 20.4359C8.17639 19.3516 7.74568 18.3117 6.97899 17.5451C6.21231 16.7784 5.17245 16.3477 4.08819 16.3477ZM4.08819 22.1411C3.75094 22.1411 3.42125 22.0411 3.14083 21.8537C2.86041 21.6663 2.64184 21.4 2.51278 21.0884C2.38372 20.7768 2.34995 20.434 2.41575 20.1032C2.48154 19.7724 2.64395 19.4686 2.88242 19.2301C3.12091 18.9916 3.42475 18.8292 3.75553 18.7634C4.0863 18.6976 4.42916 18.7314 4.74076 18.8605C5.05234 18.9895 5.31866 19.2081 5.50603 19.4885C5.6934 19.7689 5.79341 20.0986 5.79341 20.4359C5.79386 20.66 5.7501 20.8819 5.6646 21.089C5.57906 21.2961 5.45347 21.4842 5.29503 21.6427C5.13659 21.8012 4.94842 21.9267 4.74132 22.0123C4.53422 22.0978 4.31226 22.1416 4.08819 22.1411Z" fill="black"/>
<path d="M61.3323 8.17908C60.5234 8.17908 59.7331 8.41904 59.0603 8.86859C58.3881 9.31814 57.8639 9.95703 57.5545 10.7045C57.2457 11.4519 57.1647 12.2743 57.3233 13.0675C57.4814 13.8607 57.8718 14.5892 58.4444 15.1606C59.0165 15.7321 59.746 16.1209 60.5391 16.2778C61.3328 16.4347 62.1552 16.3528 62.9016 16.0422C63.6486 15.7317 64.2865 15.2066 64.7354 14.5333C65.1837 13.86 65.4222 13.0689 65.4205 12.2601C65.4205 11.7232 65.3148 11.1916 65.1095 10.6956C64.9041 10.1996 64.6026 9.7489 64.223 9.36927C63.8438 8.98964 63.3927 8.68853 62.8971 8.48305C62.401 8.27763 61.8695 8.17188 61.3323 8.17188M61.3323 13.9617C60.9948 13.9617 60.6651 13.8616 60.3845 13.674C60.1043 13.4865 59.8855 13.22 59.7567 12.9082C59.6279 12.5964 59.5941 12.2534 59.66 11.9225C59.7263 11.5916 59.8889 11.2877 60.128 11.0494C60.367 10.8111 60.6708 10.649 61.0021 10.5836C61.3328 10.5182 61.676 10.5525 61.9876 10.6821C62.2992 10.8117 62.5653 11.0308 62.752 11.3118C62.9388 11.5926 63.0383 11.9227 63.0378 12.2601C63.0366 12.7117 62.8566 13.1445 62.5371 13.4635C62.2171 13.7825 61.784 13.9617 61.3323 13.9617Z" fill="black"/>
</g>
<defs>
<clipPath id="clip0_3324_10733">
<rect width="135" height="24.525" fill="white"/>
</clipPath>
</defs>
</svg>
