<svg width="153" height="38" viewBox="0 0 173 38" fill="white" xmlns="http://www.w3.org/2000/svg">
    <g fill="white">
    <path d="M15.9023 0.570322C13.888 0.538019 11.8885 0.904778 10.0289 1.64763C8.16938 2.39048 6.48982 3.49341 5.09543 4.88738C2.30909 7.63182 0.75 11.3105 0.75 15.1404C0.75 18.9703 2.30909 22.649 5.09543 25.3934C6.49982 26.7455 8.16824 27.8192 10.0054 28.5531C11.8426 29.287 13.8126 29.6669 15.8029 29.6709C17.7932 29.6749 19.7648 29.303 21.6052 28.5765C23.4456 27.85 25.1187 26.783 26.529 25.4366C27.9393 24.0901 29.0592 22.4906 29.8247 20.7292C30.5902 18.9678 30.9864 17.0791 30.9905 15.1709C30.9947 13.2628 30.6068 11.3725 29.8491 9.60803C29.0913 7.84358 27.9784 6.2395 26.574 4.88738C25.2006 3.50276 23.5439 2.40471 21.7077 1.6619C19.8715 0.919081 17.8951 0.547474 15.9023 0.570322ZM15.9023 25.8251C13.6913 25.8121 11.5333 25.1752 9.69745 23.9938C7.86164 22.8124 6.42935 21.1389 5.5793 19.182C4.72925 17.2252 4.49908 15.0716 4.91752 12.9902C5.33596 10.9087 6.38448 8.99141 7.93223 7.47762C8.95623 6.44045 10.1928 5.61744 11.5643 5.06026C12.9359 4.50307 14.4128 4.22375 15.9023 4.23982C17.3879 4.2486 18.857 4.53922 20.2249 5.09492C21.5928 5.65062 22.8324 6.46042 23.8723 7.47762C25.4201 8.99141 26.4686 10.9087 26.887 12.9902C27.3054 15.0716 27.0753 17.2252 26.2252 19.182C25.3752 21.1389 23.9429 22.8124 22.1071 23.9938C20.2713 25.1752 18.1132 25.8121 15.9023 25.8251Z" fill="white"></path>
    <path d="M45.4861 8.4703C43.9659 8.44755 42.4641 8.79143 41.1186 9.47033C39.7732 10.1492 38.6273 11.1414 37.7862 12.3557V8.94518H34.0488V37.0061H37.8312V25.8249C38.6835 27.0195 39.8353 27.9895 41.1807 28.6458C42.5262 29.3021 44.0222 29.6236 45.5311 29.5807C46.9347 29.5878 48.3259 29.3282 49.6243 28.817C50.9227 28.3057 52.1026 27.5529 53.0959 26.602C55.063 24.5343 56.1688 21.8455 56.2028 19.0471C56.1947 16.2439 55.0854 13.5465 53.0959 11.4922C52.0965 10.5342 50.9102 9.77416 49.6045 9.25565C48.2988 8.73715 46.8993 8.47028 45.4861 8.4703ZM45.0808 11.9671C46.0533 11.9565 47.018 12.1345 47.9169 12.4904C48.8158 12.8463 49.6304 13.3727 50.3117 14.038C50.9931 14.7034 51.5271 15.4939 51.8818 16.3621C52.2364 17.2303 52.4043 18.1583 52.3754 19.0903C52.3754 20.9508 51.6045 22.7352 50.2323 24.0508C48.8601 25.3664 46.9989 26.1055 45.0583 26.1055C43.1177 26.1055 41.2565 25.3664 39.8843 24.0508C38.5121 22.7352 37.7412 20.9508 37.7412 19.0903C37.7121 18.1546 37.8813 17.223 38.2387 16.3518C38.5961 15.4807 39.1342 14.6882 39.8204 14.0222C40.5066 13.3563 41.3266 12.8308 42.2308 12.4775C43.135 12.1243 44.1046 11.9506 45.0808 11.9671Z" fill="white"></path>
    <path d="M64.9382 3.41797L61.1558 4.49723V8.94381H57.1033V12.4406H61.1558V23.2333C61.1558 25.3918 61.6962 26.9891 62.9119 28.0252C64.2939 28.9489 65.9576 29.4046 67.6399 29.3203C68.5455 29.292 69.4481 29.2055 70.3417 29.0613H70.4767V25.8235H69.9364C67.775 25.953 66.2891 26.0825 65.6137 25.3055C65.0733 24.9169 64.9382 24.2262 64.9382 23.2333V12.4406H70.4767V8.94381H64.9382V3.41797Z" fill="white"></path>
    <path d="M78.4468 8.98682H74.5293V29.1907H78.4468V8.98682Z" fill="white"></path>
    <path d="M76.5556 0.698242C75.8749 0.698242 75.2221 0.957493 74.7408 1.41897C74.2594 1.88044 73.989 2.50634 73.989 3.15896C73.9917 3.47541 74.0609 3.78809 74.1926 4.07829C74.3242 4.36849 74.5156 4.63023 74.7552 4.84788C74.9948 5.06552 75.2778 5.23458 75.5872 5.34495C75.8965 5.45531 76.2259 5.50471 76.5556 5.49018C76.8754 5.49161 77.1922 5.43228 77.4879 5.31563C77.7836 5.19898 78.0522 5.02733 78.2783 4.81057C78.5044 4.59381 78.6834 4.33625 78.8051 4.05277C78.9268 3.76929 78.9887 3.4655 78.9872 3.15896C78.9937 2.52662 78.7437 1.91657 78.2901 1.4575C77.8365 0.998418 77.2146 0.726193 76.5556 0.698242Z" fill="white"></path>
    <path d="M91.8204 25.1758L85.3363 8.98682H81.2837L89.659 29.0611H93.9817L102.357 9.11633V8.98682H98.3045L91.8204 25.1758Z" fill="white"></path>
    <path d="M113.704 8.4692C112.242 8.42832 110.787 8.67574 109.429 9.19611C108.07 9.71647 106.838 10.4987 105.808 11.4943C104.778 12.49 103.972 13.6778 103.44 14.9842C102.909 16.2906 102.663 17.6878 102.717 19.0892C102.69 20.4827 102.95 21.8676 103.483 23.1642C104.017 24.4608 104.812 25.6434 105.824 26.644C106.902 27.6301 108.174 28.4012 109.565 28.9125C110.956 29.4238 112.44 29.6653 113.929 29.6228C115.738 29.6923 117.535 29.3113 119.145 28.5169C120.755 27.7225 122.123 26.5418 123.115 25.0899L120.008 23.4062V23.2767L119.873 23.4062C119.227 24.3229 118.343 25.0633 117.31 25.5551C116.276 26.0469 115.127 26.2734 113.974 26.2123C112.27 26.3025 110.587 25.8096 109.227 24.8213C107.866 23.833 106.915 22.4136 106.545 20.816H123.971V20.6865C124.083 20.1758 124.128 19.6537 124.106 19.1323C124.182 16.414 123.166 13.7714 121.269 11.7502C120.33 10.7122 119.167 9.88153 117.861 9.31517C116.556 8.74881 115.137 8.46021 113.704 8.4692ZM113.704 11.966C115.339 11.9147 116.933 12.4617 118.162 13.496C119.391 14.5303 120.164 15.9744 120.323 17.535H106.545C106.792 15.9153 107.666 14.4439 108.992 13.4125C110.318 12.381 112 11.8648 113.704 11.966Z" fill="white"></path>
    <path d="M137.749 8.72846C136.448 8.63765 135.148 8.92209 134.017 9.54523C132.885 10.1684 131.974 11.1017 131.4 12.2253V8.98748H127.618V29.0618H131.4V18.4418C131.344 17.621 131.458 16.7975 131.736 16.0193C132.014 15.2411 132.451 14.5238 133.021 13.9089C133.667 13.3754 134.419 12.9738 135.232 12.7288C136.045 12.4839 136.902 12.4007 137.749 12.4843H137.884V8.72846H137.749Z" fill="white"></path>
    <path d="M172.061 27.8967L159.003 1.08775C158.955 0.922286 158.847 0.778774 158.698 0.683598C158.55 0.588423 158.37 0.547978 158.192 0.569696H155.761C155.583 0.547978 155.403 0.588423 155.255 0.683598C155.106 0.778774 154.998 0.922286 154.95 1.08775L143.603 27.8967C143.541 28.0242 143.515 28.1649 143.526 28.3052C143.537 28.4455 143.585 28.5807 143.667 28.6977C143.748 28.8148 143.86 28.9098 143.99 28.9736C144.121 29.0375 144.267 29.068 144.414 29.0623H171.296C171.926 29.0623 172.511 28.3716 172.061 27.8967ZM155.986 12.3553L161.614 23.7523C161.676 23.8878 161.703 24.0353 161.693 24.1827C161.683 24.3301 161.636 24.4731 161.557 24.5998C161.477 24.7264 161.368 24.8331 161.237 24.911C161.106 24.9888 160.958 25.0356 160.804 25.0474H150.447C150.29 25.0373 150.136 24.9934 149.998 24.9189C149.86 24.8444 149.742 24.7412 149.651 24.617C149.56 24.4927 149.5 24.3505 149.474 24.2009C149.448 24.0512 149.458 23.898 149.502 23.7523L154.365 12.3553C154.439 12.2093 154.554 12.0862 154.697 12C154.84 11.9139 155.006 11.8682 155.175 11.8682C155.345 11.8682 155.51 11.9139 155.654 12C155.797 12.0862 155.912 12.2093 155.986 12.3553Z" fill="white"></path>
    </g>
</svg>