<svg width="94" height="24" viewBox="0 0 94 24" fill="none" xmlns="http://www.w3.org/2000/svg">
<mask id="mask0_3237_10491" style="mask-type:luminance" maskUnits="userSpaceOnUse" x="0" y="0" width="94" height="24">
<path d="M93.2479 0H0V23.9115H93.2479V0Z" fill="white"/>
</mask>
<g mask="url(#mask0_3237_10491)">
<path d="M17.4437 14.5916C16.6903 14.1549 15.8404 14.029 14.9985 14.0014C14.2922 13.9778 13.2398 13.5254 13.2398 12.2309C13.2438 11.7646 13.4301 11.3184 13.7587 10.9876C14.0873 10.6568 14.5322 10.4676 14.9985 10.4604C15.8404 10.4309 16.6903 10.305 17.4437 9.87028C18.1202 9.47852 18.6818 8.91571 19.0719 8.2383C19.4621 7.56089 19.6672 6.79275 19.6667 6.011C19.6661 5.22927 19.4598 4.46142 19.0686 3.7846C18.6774 3.10778 18.115 2.54579 17.4379 2.15506C16.7608 1.76434 15.9929 1.55863 15.2111 1.55859C14.4294 1.55856 13.6614 1.7642 12.9843 2.15487C12.3071 2.54552 11.7447 3.10747 11.3534 3.78425C10.9622 4.46103 10.7558 5.22885 10.7552 6.0106C10.7552 6.87421 11.0621 7.66896 11.4555 8.40667C11.784 9.02634 11.9512 10.1772 10.8201 10.8283C10.4113 11.0558 9.92956 11.114 9.47832 10.9904C9.02706 10.8669 8.64222 10.5714 8.40633 10.1673C7.96371 9.45913 7.42272 8.79028 6.68108 8.36339C6.00371 7.97266 5.23542 7.76709 4.45343 7.76733C3.67142 7.76756 2.90327 7.97359 2.22611 8.36473C1.54897 8.75585 0.986686 9.31832 0.595757 9.99557C0.204827 10.6728 -0.000976562 11.4411 -0.000976562 12.2231C-0.000976562 13.0051 0.204827 13.7733 0.595757 14.4505C0.986686 15.1278 1.54897 15.6903 2.22611 16.0814C2.90327 16.4725 3.67142 16.6786 4.45343 16.6788C5.23542 16.679 6.00371 16.4735 6.68108 16.0827C7.42862 15.6499 7.96371 14.987 8.40633 14.2788C8.77026 13.6886 9.67715 12.9568 10.8201 13.6178C11.2216 13.8583 11.5128 14.2466 11.6312 14.6993C11.7496 15.1521 11.6858 15.6332 11.4535 16.0395C11.0601 16.7772 10.7552 17.5719 10.7552 18.4355C10.7552 19.2179 10.9612 19.9866 11.3524 20.6641C11.7436 21.3416 12.3062 21.9042 12.9838 22.2955C13.6613 22.6868 14.4299 22.8927 15.2122 22.8929C15.9946 22.8929 16.7632 22.6872 17.4409 22.2961C18.1185 21.9052 18.6813 21.3426 19.0727 20.6653C19.4641 19.9878 19.6703 19.2192 19.6706 18.4368C19.6709 17.6544 19.4652 16.8858 19.0743 16.208C18.6835 15.5303 18.1211 14.9674 17.4437 14.5758V14.5916Z" fill="#006AFF"/>
<path d="M25.8027 5.47093H28.905V6.93454C29.3187 6.43121 29.8385 6.02545 30.4271 5.74627C31.0158 5.46708 31.6587 5.32133 32.3103 5.31946C32.7521 5.3029 33.1939 5.35398 33.6204 5.47093V9.01192C33.6204 9.01192 33.1916 8.86044 32.1588 8.86044C30.3883 8.86044 29.208 10.0408 29.208 11.8113V19.0408H25.8027V5.47093ZM42.4749 5.47093H45.5772V6.78307C46.6363 5.84793 47.9984 5.32802 49.4113 5.31946C52.8165 5.31946 55.7673 8.27028 55.7673 12.2559C55.7673 16.2414 52.8165 19.1922 49.4113 19.1922C48.1101 19.1956 46.8533 18.7201 45.8801 17.8565V23.9097H42.4749V5.47093ZM52.3621 12.2559C52.3621 10.0368 50.8985 8.57323 48.9824 8.57323C47.0663 8.57323 45.5772 10.0309 45.5772 12.2559C45.5772 14.4808 47.0644 15.9326 48.9844 15.9326C50.9044 15.9326 52.3621 14.4768 52.3621 12.2559ZM58.2637 5.47093H61.366V6.78307C62.4256 5.8484 63.7873 5.32855 65.2001 5.31946C68.6054 5.31946 71.5562 8.27028 71.5562 12.2559C71.5562 16.2414 68.6054 19.1922 65.2001 19.1922C63.8992 19.1945 62.6427 18.7192 61.669 17.8565V23.9097H58.2637V5.47093ZM68.1529 12.2559C68.1529 10.0368 66.6893 8.57323 64.7713 8.57323C62.8532 8.57323 61.366 10.0309 61.366 12.2559C61.366 14.4808 62.8552 15.9326 64.7713 15.9326C66.6873 15.9326 68.1529 14.4768 68.1529 12.2559ZM74.0545 0.452572H77.4598V19.0408H74.0545V0.452572ZM79.9562 12.2559C79.9562 8.42372 83.0585 5.31946 86.7411 5.31946C90.2958 5.31946 93.2467 8.12077 93.2467 12.2559C93.2325 12.7051 93.1817 13.1525 93.0952 13.5936H83.6388C83.9417 14.9057 84.9844 15.9326 86.7411 15.9326C88.3306 15.9326 88.9621 15.2027 88.9621 15.2027H92.6447C91.9621 16.9732 89.8434 19.1863 86.7431 19.1863C83.0585 19.1922 79.9562 16.09 79.9562 12.2559ZM89.989 11.2231C89.8341 10.4745 89.4259 9.80225 88.8332 9.31957C88.2407 8.8369 87.4996 8.57335 86.7352 8.57335C85.9709 8.57335 85.2299 8.8369 84.6372 9.31957C84.0444 9.80225 83.6362 10.4745 83.4814 11.2231H89.989ZM35.6073 1.91421C35.6073 1.40239 35.8107 0.911525 36.1725 0.549611C36.5345 0.187696 37.0253 -0.015625 37.5372 -0.015625C38.049 -0.015625 38.5398 0.187696 38.9018 0.549611C39.2638 0.911525 39.467 1.40239 39.467 1.91421C39.467 2.42604 39.2638 2.9169 38.9018 3.27881C38.5398 3.64072 38.049 3.84405 37.5372 3.84405C37.0253 3.84405 36.5345 3.64072 36.1725 3.27881C35.8107 2.9169 35.6073 2.42604 35.6073 1.91421ZM35.8355 5.47093H39.2467V19.0447H35.8414L35.8355 5.47093Z" fill="black"/>
</g>
</svg>
