<svg width="197" height="63" viewBox="0 0 197 63" fill="none" xmlns="http://www.w3.org/2000/svg">
<path d="M141.32 63C139.722 63 138.303 61.5803 138.303 59.9831V3.0169C138.303 1.41972 139.722 0 141.32 0C142.917 0 144.336 1.41972 144.336 3.0169V59.9831C144.514 61.7577 143.094 63 141.32 63ZM193.494 55.0141C194.559 53.7718 194.381 51.8197 193.139 50.7549C191.897 49.6901 189.945 49.8676 188.88 51.1099C185.686 54.8366 181.072 56.9662 175.925 56.9662C167.584 56.9662 160.663 50.0451 160.663 41.7042C160.663 33.3634 167.584 26.4423 175.925 26.4423C182.846 26.4423 188.525 31.4113 189.767 37.8H171.134C169.536 37.8 168.117 39.2197 168.117 40.8169C168.117 42.4141 169.536 43.8338 171.134 43.8338H193.139C194.736 43.8338 196.156 42.4141 196.156 40.8169V40.462C196.156 29.2817 187.105 20.4084 176.103 20.4084C164.39 20.4084 154.807 29.9915 154.807 41.7042C154.807 53.4169 164.39 63 176.103 63C182.846 63 189.235 60.1606 193.494 55.0141ZM128.187 59.9831V40.462C128.187 29.2817 119.136 20.4084 108.134 20.4084C96.4209 20.4084 86.8378 29.9915 86.8378 41.7042C86.8378 53.4169 96.4209 63 108.134 63C109.731 63 111.15 61.5803 111.15 59.9831C111.15 58.3859 109.731 56.9662 108.134 56.9662C99.7927 56.9662 92.8716 50.0451 92.8716 41.7042C92.8716 33.3634 99.7927 26.4423 108.134 26.4423C115.942 26.4423 122.153 32.6535 122.153 40.462V59.9831C122.153 61.5803 123.573 63 125.17 63C126.767 63 128.187 61.7577 128.187 59.9831ZM35.9054 50.7549C35.9054 47.738 34.8406 43.6563 29.5167 41.3493C26.3223 39.9296 22.4181 39.2197 18.6913 38.6873C9.81809 37.2676 6.62372 36.2028 6.62372 32.4761C6.62372 28.3944 12.1251 26.4423 17.6265 26.4423C20.9984 26.4423 25.9674 27.1521 30.0491 30.5239C31.2913 31.5887 33.2434 31.4113 34.3082 30.169C35.373 28.9268 35.1956 26.9746 33.9533 25.9099C28.4519 21.4732 22.0632 20.5859 17.6265 20.5859C5.91386 20.5859 0.412454 26.9746 0.412454 32.831C0.412454 35.8479 1.47724 39.9296 6.80119 42.4141C9.99555 43.8338 13.8998 44.5437 17.6265 45.0761C26.4998 46.4958 29.5167 47.5606 29.5167 51.1099C29.5167 54.8366 25.0801 57.1437 18.6913 57.1437C12.1251 57.1437 6.97865 54.4817 4.49414 52.8845C3.07443 51.9972 1.12231 52.3521 0.234989 53.7718C-0.297405 54.8366 0.0575246 56.7887 1.47724 57.6761C6.62372 61.0479 12.835 63 19.0463 63C30.5815 63 35.9054 56.9662 35.9054 50.7549ZM80.0941 53.9493C80.9815 52.5296 80.6265 50.5775 79.2068 49.6901C77.7871 48.8028 75.835 49.1577 74.9477 50.5775C72.2857 54.4817 68.0265 56.7887 63.235 56.7887C54.8941 56.7887 47.973 49.8676 47.973 41.5268C47.973 33.1859 54.8941 26.2648 63.235 26.2648C68.0265 26.2648 72.2857 28.5718 74.9477 32.4761C75.835 33.8958 77.7871 34.2507 79.2068 33.3634C80.6265 32.4761 80.9815 30.5239 80.0941 29.1042C76.3674 23.4254 70.1561 20.0535 63.235 20.0535C51.5223 20.0535 41.9392 29.6366 41.9392 41.3493C41.9392 53.062 51.5223 62.6451 63.235 62.6451C69.9786 63 76.3674 59.6282 80.0941 53.9493Z" fill="white"/>
</svg>
