<svg width="13" height="13" viewBox="0 0 13 13" fill="none" xmlns="http://www.w3.org/2000/svg">
<path d="M13 4.55C13 4.90898 12.709 5.2 12.35 5.2C11.991 5.2 11.7 4.90898 11.7 4.55V2.21914L2.21914 11.7H4.55C4.90898 11.7 5.2 11.991 5.2 12.35C5.2 12.709 4.90898 13 4.55 13H0.65C0.477609 13 0.312328 12.9315 0.19043 12.8096C0.0685312 12.6877 0 12.5224 0 12.35V8.45C0 8.09101 0.291015 7.8 0.65 7.8C1.00899 7.8 1.3 8.09101 1.3 8.45V10.7809L10.7809 1.3H8.45C8.09101 1.3 7.8 1.00899 7.8 0.65C7.8 0.291015 8.09101 0 8.45 0H12.35C12.709 0 13 0.291015 13 0.65V4.55Z" fill="#CBCFD3"/>
</svg>
