<svg width="24" height="24" viewBox="0 0 24 24" fill="none" xmlns="http://www.w3.org/2000/svg">
    <path d="M2.29296 2.29301C2.65918 1.92679 3.23905 1.90401 3.63183 2.22465L3.708 2.29301L7.34765 5.93266C7.40274 5.97658 7.45309 6.02752 7.49901 6.08402L17.9004 16.4854C17.9633 16.534 18.0201 16.5916 18.0713 16.6563L21.708 20.293C22.0981 20.6835 22.0981 21.3166 21.708 21.7071C21.3175 22.0976 20.6835 22.0976 20.293 21.7071L17.1377 18.5518C15.693 19.397 13.9713 20 12 20C9.13861 19.9999 6.80563 18.7356 5.07714 17.293C3.35089 15.8523 2.16696 14.1857 1.57421 13.2471C1.45419 13.0571 1.28567 12.8065 1.20312 12.4463C1.14088 12.1744 1.14079 11.8246 1.20312 11.5528C1.2858 11.1924 1.45487 10.9415 1.57519 10.751C2.17756 9.79746 3.4028 8.07707 5.19726 6.61137L2.29296 3.70707C1.90271 3.3166 1.90271 2.68348 2.29296 2.29301ZM6.61815 8.03227C4.97908 9.32633 3.8341 10.921 3.26659 11.8194C3.23112 11.8755 3.20633 11.915 3.18554 11.9493C3.17159 11.9722 3.16234 11.9881 3.15624 11.9991C3.16223 12.0099 3.17064 12.0269 3.18456 12.0498C3.20522 12.0839 3.23027 12.1238 3.26562 12.1797C3.79831 13.0231 4.85246 14.4999 6.35839 15.7569C7.86224 17.012 9.75684 17.9999 12 18C13.3528 18 14.5774 17.6412 15.667 17.0811L14.0312 15.4454C13.4359 15.7969 12.7412 16 12 16C9.79104 15.9998 7.99999 14.209 7.99999 12C7.99999 11.2588 8.20311 10.5642 8.55468 9.96879L6.61815 8.03227ZM20.9834 15.2227C20.6288 15.6461 19.9976 15.7022 19.5742 15.3477C19.1508 14.9931 19.0956 14.362 19.4502 13.9385L20.9834 15.2227ZM12 4.00004C14.8616 4.00004 17.1952 5.2644 18.9238 6.70707C20.65 8.14775 21.833 9.81438 22.4258 10.753C22.5307 10.9192 22.6734 11.1312 22.7627 11.4229L22.7978 11.5538L22.833 11.7696C22.8563 11.9954 22.8446 12.2434 22.7978 12.4473C22.7151 12.8079 22.5453 13.0593 22.4248 13.25C22.1065 13.7539 21.6233 14.4584 20.9834 15.2227L19.4502 13.9385C20.0213 13.2564 20.4521 12.6269 20.7334 12.1817C20.769 12.1254 20.7945 12.0852 20.8154 12.0508C20.8297 12.0273 20.8386 12.0111 20.8447 12C20.8387 11.9893 20.83 11.9726 20.8164 11.9502C20.7957 11.9162 20.7707 11.8763 20.7353 11.8204C20.2027 10.977 19.1485 9.50016 17.6426 8.2432C16.1386 6.988 14.2433 6.00004 12 6.00004C11.6184 6.00006 11.2484 6.02905 10.8896 6.08207C10.3433 6.16285 9.83467 5.78467 9.7539 5.23832C9.67328 4.6921 10.0504 4.18435 10.5967 4.10355C11.0504 4.03647 11.5184 4.00006 12 4.00004ZM3.15722 12.0245V12.0225L3.15624 12.0205C3.15635 12.0222 3.15713 12.0235 3.15722 12.0245ZM9.99999 12C9.99999 13.1045 10.8956 13.9998 12 14C12.1786 14 12.3511 13.9735 12.5156 13.9297L10.0693 11.4834C10.0254 11.6483 9.99999 11.8211 9.99999 12Z" fill="white"/>
</svg>
