<svg width="14" height="14" viewBox="0 0 14 14" fill="none" xmlns="http://www.w3.org/2000/svg">
<path d="M12.293 0.292896C12.6836 -0.0976321 13.3166 -0.0976321 13.7071 0.292896C14.0976 0.683425 14.0976 1.31645 13.7071 1.70697L8.41408 7L13.7071 12.293L13.7755 12.3692C14.0958 12.762 14.0732 13.341 13.7071 13.7071C13.341 14.0732 12.762 14.0958 12.3692 13.7755L12.293 13.7071L7 8.41408L1.70697 13.7071C1.31645 14.0976 0.683425 14.0976 0.292896 13.7071C-0.0976321 13.3166 -0.0976321 12.6836 0.292896 12.293L5.58592 7L0.292896 1.70697C-0.0976321 1.31645 -0.0976321 0.683425 0.292896 0.292896C0.683425 -0.0976321 1.31645 -0.0976321 1.70697 0.292896L7 5.58592L12.293 0.292896Z" fill="#CBCFD3"/>
</svg>
