<svg width="18" height="18" viewBox="0 0 18 18" fill="none" xmlns="http://www.w3.org/2000/svg">
<path d="M8.99902 7.36328V10.8487H13.8425C13.6299 11.9696 12.9916 12.9187 12.0344 13.5568L14.9552 15.8231C16.657 14.2523 17.6388 11.9451 17.6388 9.20424C17.6388 8.56608 17.5815 7.9524 17.4751 7.36338L8.99902 7.36328Z" fill="#4285F4"/>
<path d="M3.95541 10.7129L3.29665 11.2172L0.964844 13.0335C2.44572 15.9706 5.48088 17.9997 8.99896 17.9997C11.4288 17.9997 13.466 17.1979 14.9551 15.8234L12.0343 13.5571C11.2325 14.0971 10.2098 14.4244 8.99896 14.4244C6.65902 14.4244 4.67094 12.8453 3.95909 10.7181L3.95541 10.7129Z" fill="#34A853"/>
<path d="M0.965364 4.96631C0.351774 6.17714 0 7.5435 0 8.9998C0 10.4561 0.351774 11.8225 0.965364 13.0333C0.965364 13.0414 3.9599 10.7097 3.9599 10.7097C3.7799 10.1697 3.67351 9.59705 3.67351 8.99971C3.67351 8.40237 3.7799 7.82969 3.9599 7.28971L0.965364 4.96631Z" fill="#FBBC05"/>
<path d="M8.99914 3.58356C10.3246 3.58356 11.5027 4.04172 12.4436 4.92535L15.0208 2.34816C13.4581 0.891855 11.4291 0 8.99914 0C5.48107 0 2.44572 2.02086 0.964844 4.96626L3.95928 7.28985C4.67104 5.1626 6.65921 3.58356 8.99914 3.58356Z" fill="#EA4335"/>
</svg>
