<svg width="10" height="12" viewBox="0 0 10 12" fill="none" xmlns="http://www.w3.org/2000/svg">
<path d="M8.88889 4.90911C8.88889 2.80038 7.14777 1.09091 5 1.09091C2.85223 1.09091 1.11111 2.80038 1.11111 4.90911C1.11111 5.94116 1.58494 6.91542 2.38444 7.93469C3.09553 8.84124 4.01623 9.72673 5 10.6854C5.98377 9.72673 6.90447 8.84124 7.61556 7.93469C8.41506 6.91542 8.88889 5.94116 8.88889 4.90911ZM6.11111 4.90911C6.11111 4.30661 5.61365 3.8182 5 3.8182C4.38635 3.8182 3.88889 4.30661 3.88889 4.90911C3.88889 5.5116 4.38635 6.00002 5 6.00002C5.61365 6.00002 6.11111 5.5116 6.11111 4.90911ZM7.22222 4.90911C7.22222 6.1141 6.2273 7.09093 5 7.09093C3.7727 7.09093 2.77778 6.1141 2.77778 4.90911C2.77778 3.70412 3.7727 2.72728 5 2.72728C6.2273 2.72728 7.22222 3.70412 7.22222 4.90911ZM10 4.90911C10 6.287 9.36269 7.49449 8.49555 8.59999C7.63385 9.69855 6.48545 10.7674 5.3928 11.8402C5.17584 12.0533 4.82416 12.0533 4.60721 11.8402C3.51455 10.7674 2.36615 9.69855 1.50445 8.59999C0.637313 7.49449 0 6.287 0 4.90911C0 2.19788 2.23858 0 5 0C7.76142 0 10 2.19788 10 4.90911Z" fill="#CBCFD3"/>
</svg>
