<svg width="15" height="13" viewBox="0 0 15 13" fill="none" xmlns="http://www.w3.org/2000/svg">
<path d="M0.761854 13H0C0 11.6825 0.235812 10.4018 0.698366 9.20411C0.87976 8.74344 1.08836 8.3012 1.33324 7.86818L1.43301 7.69313L1.63254 7.6747C2.02254 7.64706 2.63928 7.56414 3.33765 7.30617C4.35345 6.93763 5.17879 6.34798 5.79553 5.55563C6.27623 4.93834 6.6118 4.22892 6.7932 3.43657L5.97693 0.525159L6.74785 0L6.96552 0.16584C7.46436 0.543586 7.9904 0.902906 8.53458 1.20695C8.87923 1.40964 9.24201 1.5939 9.6048 1.75974C10.3032 1.7321 11.0106 1.6584 11.6999 1.55705C12.5615 1.42807 13.4231 1.25301 14.2666 1.02268L14.6113 0.930546L14.7292 1.28065C14.9378 1.92558 15.0285 2.58894 14.9922 3.26152C14.965 3.89724 14.8199 4.51453 14.575 5.09497L13.8766 4.79093C14.0852 4.29341 14.2031 3.75904 14.2303 3.21545C14.2576 2.764 14.2122 2.31254 14.1034 1.8703C13.3506 2.06378 12.5797 2.22041 11.8087 2.33097C11.065 2.44153 10.3032 2.50602 9.54132 2.54288H9.45062L9.36899 2.50602C8.96086 2.31254 8.55272 2.10985 8.15365 1.87952C7.73645 1.63997 7.31924 1.37279 6.92018 1.08717L7.59133 3.41814L7.57319 3.51028C7.36459 4.45925 6.97459 5.30687 6.4032 6.03473C5.69577 6.94685 4.75252 7.6102 3.60067 8.03402C2.92951 8.27356 2.33091 8.38412 1.89557 8.43019C1.71417 8.77108 1.55092 9.1304 1.4058 9.48972C0.979527 10.5953 0.761854 11.7746 0.761854 13Z" fill="currentColor"/>
<path d="M2.75299 13V12.8478C2.75299 12.4717 2.85159 12.1851 3.03984 12.0061C3.33566 11.7374 3.7749 11.7553 3.80179 11.7553H3.81076H9.21614H9.23406H9.26096C9.28785 11.7553 9.64641 11.7285 9.90637 11.9702C10.1305 12.1762 10.247 12.5165 10.247 13H11C11 12.2926 10.7938 11.7553 10.3994 11.3972C9.9243 10.9763 9.34163 10.9942 9.19821 11.0032H3.85558C3.72112 10.9942 3.0488 10.9852 2.53785 11.4419C2.17928 11.7643 2 12.2389 2 12.8388V12.991H2.75299V13Z" fill="currentColor"/>
<path d="M11.5751 7.37176C12.1118 9.17882 12.361 11.0706 12.3323 13H13.1374C13.1661 10.9953 12.8978 9.02824 12.3514 7.14588C12.2364 6.76 12.1118 6.37412 11.9681 5.99765L13.6933 6.69412L14 5.96L11.623 5L11 5.72471L11.0863 5.94118C11.2684 6.41176 11.4313 6.89176 11.5751 7.37176Z" fill="currentColor"/>
</svg>
