<svg xmlns="http://www.w3.org/2000/svg" width="20" height="20" viewBox="0 0 24 24" fill="none">
    <path
        d="M15 7.30859C15 7.21519 14.9992 7.09131 15.0137 6.96484C15.0252 6.86398 15.0446 6.76395 15.0713 6.66602C15.1048 6.54336 15.1519 6.42944 15.1865 6.34277L16.1943 3.82324C16.3485 3.43793 16.4375 3.21086 16.4873 3.04395C16.4899 3.0354 16.491 3.02706 16.4932 3.01953C16.4856 3.01873 16.4774 3.01739 16.4688 3.0166C16.2953 3.00087 16.0516 3 15.6367 3H8.36328C7.94872 3 7.70563 3.00088 7.53223 3.0166C7.52364 3.01738 7.51538 3.01873 7.50781 3.01953C7.50994 3.02706 7.51113 3.0354 7.51367 3.04395C7.56348 3.21086 7.65252 3.43793 7.80664 3.82324L8.81445 6.34277C8.84912 6.42944 8.89621 6.54337 8.92969 6.66602C8.94305 6.71498 8.95428 6.76465 8.96387 6.81445L8.98731 6.96484L8.99902 7.14844C9.00048 7.20695 9 7.26177 9 7.30859V9.43848C9 9.60644 9.00551 9.82981 8.95996 10.0518C8.92373 10.2282 8.86318 10.3992 8.78125 10.5596C8.67826 10.761 8.5355 10.9315 8.43067 11.0625L6.86133 13.0254C6.51608 13.457 6.30047 13.7268 6.16504 13.9316C6.15634 13.9448 6.14986 13.9582 6.14258 13.9697C6.15621 13.9712 6.17066 13.9751 6.18652 13.9766C6.43103 13.9988 6.7765 14 7.3291 14H16.6719C17.2244 14 17.57 13.9988 17.8145 13.9766C17.8299 13.9752 17.8441 13.9712 17.8574 13.9697C17.8502 13.9584 17.8445 13.9447 17.8359 13.9316C17.7005 13.7268 17.4849 13.457 17.1396 13.0254L15.5703 11.0625C15.4655 10.9315 15.3227 10.761 15.2197 10.5596C15.1378 10.3992 15.0773 10.2281 15.041 10.0518C14.9955 9.82981 15 9.60644 15 9.43848V7.30859ZM17 9.43848C17 9.54986 17.0004 9.60537 17.002 9.64551V9.64844C17.0026 9.64927 17.0032 9.65046 17.0039 9.65137C17.0277 9.68368 17.0624 9.72666 17.1318 9.81348L18.7021 11.7754C19.0226 12.1759 19.3064 12.5303 19.5039 12.8291C19.6912 13.1124 19.9194 13.5136 19.9199 13.998C19.9205 14.607 19.6439 15.1835 19.168 15.5635C18.7893 15.8657 18.3334 15.938 17.9951 15.9688C17.6385 16.0011 17.1846 16 16.6719 16H13V22C13 22.5523 12.5523 23 12 23C11.4479 22.9998 11 22.5521 11 22V16H7.3291C6.81634 16 6.36249 16.0011 6.00586 15.9688C5.66759 15.938 5.21169 15.8658 4.83301 15.5635C4.35705 15.1835 4.08046 14.607 4.08106 13.998C4.08158 13.5135 4.30975 13.1124 4.49707 12.8291C4.69461 12.5303 4.97842 12.1759 5.29883 11.7754L6.86914 9.81348C6.9386 9.72665 6.97325 9.68368 6.99707 9.65137L6.99902 9.64551C7.00061 9.60537 7 9.54986 7 9.43848V7.19434L6.99902 7.19336V7.19141C6.99133 7.17082 6.97999 7.14236 6.95703 7.08496L5.94922 4.56543C5.80936 4.21577 5.67854 3.89052 5.59668 3.61621C5.51403 3.33922 5.43859 2.9823 5.51953 2.59277C5.62681 2.07698 5.933 1.62416 6.37207 1.33301C6.70372 1.11316 7.06367 1.05152 7.35156 1.02539C7.63659 0.999546 7.98685 1 8.36328 1H15.6367C16.0134 1 16.3643 0.999526 16.6494 1.02539C16.9373 1.05152 17.2973 1.11316 17.6289 1.33301C18.0679 1.62416 18.3742 2.07701 18.4814 2.59277C18.5624 2.98228 18.4869 3.33923 18.4043 3.61621C18.3224 3.8906 18.1907 4.21566 18.0508 4.56543L17.043 7.08496C17.02 7.14232 17.0097 7.17083 17.002 7.19141L17.001 7.19336C17.0005 7.21533 17 7.24678 17 7.30859V9.43848Z"
        fill="white"
    />
</svg>
