<svg width="1337" height="34" viewBox="0 0 1337 34" fill="none" xmlns="http://www.w3.org/2000/svg">
<path d="M1 33C68.7691 30.9581 68.7691 9.51834 157.429 9.00787C246.09 8.4974 206.345 33 276.662 33C346.979 33 427.487 9.00787 491.689 9.00787C555.891 9.00787 657.8 33 707.225 33C756.651 33 796.905 11.0499 866.712 13.6022C936.519 16.1546 986.964 33 1034.86 33C1082.76 33 1152.56 13.6022 1194.86 13.6022C1237.15 13.6022 1323.77 33 1336 33" stroke="url(#paint0_linear_884_60312)"/>
<path d="M2 29C69.7691 26.9581 69.7691 5.51834 158.429 5.00787C247.09 4.4974 207.345 29 277.662 29C347.979 29 428.487 5.00787 492.689 5.00787C556.891 5.00787 658.8 29 708.225 29C757.651 29 797.905 7.04986 867.712 9.60221C937.519 12.1546 987.964 29 1035.86 29C1083.76 29 1153.56 9.60221 1195.86 9.60221C1238.15 9.60221 1324.77 29 1337 29" stroke="url(#paint1_linear_884_60312)"/>
<path d="M2 25C69.7691 22.9581 69.7691 1.51834 158.429 1.00787C247.09 0.497396 207.345 25 277.662 25C347.979 25 428.487 1.00787 492.689 1.00787C556.891 1.00787 658.8 25 708.225 25C757.651 25 797.905 3.04986 867.712 5.60221C937.519 8.15457 987.964 25 1035.86 25C1083.76 25 1153.56 5.60221 1195.86 5.60221C1238.15 5.60221 1324.77 25 1337 25" stroke="url(#paint2_linear_884_60312)"/>
<defs>
<linearGradient id="paint0_linear_884_60312" x1="1" y1="21" x2="1336" y2="21" gradientUnits="userSpaceOnUse">
<stop offset="0.403846" stop-color="#1C1D20"/>
<stop offset="0.661058" stop-color="#1C1D20"/>
</linearGradient>
<linearGradient id="paint1_linear_884_60312" x1="2" y1="17" x2="1337" y2="17" gradientUnits="userSpaceOnUse">
<stop offset="0.403846" stop-color="#1C1D20"/>
<stop offset="0.661058" stop-color="#1C1D20"/>
</linearGradient>
<linearGradient id="paint2_linear_884_60312" x1="2" y1="13" x2="1337" y2="13" gradientUnits="userSpaceOnUse">
<stop offset="0.403846" stop-color="#1C1D20"/>
<stop offset="0.661058" stop-color="#1C1D20"/>
</linearGradient>
</defs>
</svg>
