<svg width="37" height="33" viewBox="0 0 37 33" fill="none" xmlns="http://www.w3.org/2000/svg">
<path d="M1.87924 32.3578H0C0 29.0784 0.58167 25.8908 1.72264 22.9096C2.17007 21.763 2.68463 20.6622 3.28867 19.5844L3.53476 19.1487L4.02694 19.1028C4.98894 19.034 6.51022 18.8276 8.23286 18.1855C10.7385 17.2682 12.7744 15.8005 14.2956 13.8283C15.4814 12.2918 16.3091 10.526 16.7566 8.55383L14.7431 1.30715L16.6447 0L17.1816 0.412785C18.4121 1.35302 19.7096 2.24739 21.052 3.00416C21.9021 3.50868 22.797 3.96733 23.6918 4.38011C25.4145 4.31131 27.1595 4.12785 28.8598 3.8756C30.9851 3.55454 33.1104 3.11882 35.191 2.54551L36.0411 2.31618L36.332 3.18762C36.8465 4.7929 37.0702 6.44404 36.9808 8.11811C36.9136 9.70046 36.5557 11.2369 35.9516 12.6817L34.229 11.9249C34.7436 10.6866 35.0344 9.35647 35.1015 8.00345C35.1686 6.87976 35.0568 5.75606 34.7883 4.6553C32.9314 5.13689 31.0298 5.52674 29.1282 5.80193C27.2937 6.07712 25.4145 6.23765 23.5352 6.32938H23.3115L23.1102 6.23765C22.1034 5.75606 21.0967 5.25155 20.1123 4.67823C19.0832 4.08199 18.0541 3.41695 17.0698 2.70604L18.7253 8.50797L18.6805 8.73729C18.166 11.0993 17.204 13.2091 15.7946 15.0208C14.0496 17.2911 11.7229 18.9423 8.88165 19.9972C7.22612 20.5934 5.74958 20.8686 4.67573 20.9833C4.22829 21.8318 3.8256 22.7261 3.46765 23.6205C2.41617 26.3724 1.87924 29.3078 1.87924 32.3578Z" fill="white"/>
<path d="M6.88705 32.3564V31.9666C6.88705 31.0034 7.13314 30.2695 7.60295 29.8109C8.34123 29.1229 9.43745 29.1688 9.50457 29.1688H9.52694H23.0172H23.0619H23.1291C23.1962 29.1688 24.091 29.1 24.7398 29.7192C25.2991 30.2466 25.59 31.118 25.59 32.3564H27.4692C27.4692 30.5447 26.9546 29.1688 25.9703 28.2515C24.7846 27.1737 23.3304 27.2195 22.9725 27.2425H9.6388C9.30322 27.2195 7.62533 27.1966 6.35013 28.3661C5.45525 29.1917 5.00781 30.4071 5.00781 31.9436V32.3335H6.88705V32.3564Z" fill="white"/>
<path d="M29.0845 18.6423C30.3373 23.0453 30.919 27.6548 30.8519 32.3559H32.7311C32.7982 27.4713 32.1718 22.6784 30.8966 18.0919C30.6282 17.1517 30.3373 16.2114 30.0017 15.2941L34.0287 16.9911L34.7446 15.2024L29.1964 12.8633L27.7422 14.6291L27.9435 15.1565C28.3686 16.3032 28.7489 17.4727 29.0845 18.6423Z" fill="white"/>
</svg>
