<svg xmlns="http://www.w3.org/2000/svg" width="39" height="48" viewBox="0 0 39 48" fill="none">
  <path d="M7.94015 4.97432C7.94015 3.87762 7.16926 3.09427 6.07074 3.09427H0V0H19.4649V3.09427H13.24C12.2571 3.09427 11.5055 3.81887 11.5055 4.85682V28.5459H3.47898C3.47898 28.5459 7.28622 27.7457 7.94015 25.2657C8.59407 22.7858 7.94015 4.97432 7.94015 4.97432Z" fill="black"/>
  <path d="M19.2267 28.7101V0H22.8113V6.8348C22.8113 7.83358 23.563 8.59736 24.5266 8.59736H33.6809C34.6445 8.59736 35.3961 7.83358 35.3961 6.8348V0H39V27.0685H35.3961V13.4542C35.3961 12.4554 34.6445 11.6916 33.6809 11.6916H24.5266C23.563 11.6916 22.8113 12.4554 22.8113 13.4542V28.7101H19.2267Z" fill="black"/>
  <path d="M2.37357 43.9661C2.37357 40.6956 3.0481 37.9734 6.18947 35.9171L12.7806 31.5891C14.8427 30.2182 16.0376 28.4948 16.0376 26.4189C16.0376 23.5205 14.0911 21.7383 11.0075 21.7383C7.73124 21.7383 5.76548 23.6576 5.76548 27.1239V28.5459H2.18085V27.0456C2.18085 21.5229 5.4764 18.4678 10.9497 18.4678C16.4423 18.4678 19.6607 21.5621 19.6607 26.4581C19.6607 30.1399 17.6564 32.5683 15.1896 34.135L8.5214 38.4239C6.7869 39.5402 6.3051 40.8327 6.3051 42.7715C6.3051 43.5549 6.92181 44.2403 8.05887 44.2403H19.6993V47.6087H2.37357V43.9661Z" fill="black"/>
  <path d="M28.5798 48C22.775 48 19.4856 44.9917 19.4856 39.0143V26.863C19.4856 21.5345 23.0072 18.4081 28.3863 18.4081C33.8622 18.4081 37.4031 21.4755 37.4031 26.2731V27.0596H33.7848V26.5287C33.7848 23.4614 31.7144 21.6524 28.3863 21.6524C25.155 21.6524 23.0846 23.5597 23.0846 26.863V30.8348C24.2649 28.8292 26.6449 27.9641 28.9087 27.9641C34.1718 27.9641 37.4612 30.9724 37.4612 36.9104V39.0143C37.4612 44.5198 34.2105 48 28.5798 48ZM23.0846 39.0143C23.0846 42.8681 25.0776 44.795 28.5798 44.795C31.9079 44.795 33.8622 42.7305 33.8622 39.0143V36.9104C33.8622 33.0959 31.8885 31.1887 28.3863 31.1887C25.0582 31.1887 23.0846 33.2336 23.0846 36.9104V39.0143Z" fill="black"/>
</svg>